<svg xmlns="http://www.w3.org/2000/svg" viewBox="0 0 100 100"><g style="isolation:isolate"><path d="M73.836,36.524a32.151,32.151,0,0,1,6.976-5.141c1.959-1.146,3.359,1.7,1.448,2.781a41.414,41.414,0,0,1-7.839,3.452A.714.714,0,0,1,73.836,36.524Z" fill="#fcd200"/><path d="M25.865,63.476a32.177,32.177,0,0,1-6.977,5.141c-1.959,1.146-3.358-1.7-1.447-2.781a41.307,41.307,0,0,1,7.839-3.451A.713.713,0,0,1,25.865,63.476Z" fill="#fcd200"/><path d="M64.575,26.475a32.957,32.957,0,0,1,3.707-7.915A1.56,1.56,0,1,1,70.861,20.3a42.424,42.424,0,0,1-5.26,6.852A.7.7,0,0,1,64.575,26.475Z" fill="#fcd200"/><path d="M35.126,73.525a32.992,32.992,0,0,1-3.708,7.915A1.559,1.559,0,1,1,28.84,79.7,42.427,42.427,0,0,1,34.1,72.852.7.7,0,0,1,35.126,73.525Z" fill="#fcd200"/><path d="M51.84,22.176a33.3,33.3,0,0,1-.427-8.759,1.552,1.552,0,1,1,3.078.281,43.2,43.2,0,0,1-1.434,8.573A.693.693,0,0,1,51.84,22.176Z" fill="#fcd200"/><path d="M47.86,77.824a33.354,33.354,0,0,1,.428,8.759,1.553,1.553,0,1,1-3.079-.281,43.2,43.2,0,0,1,1.434-8.573A.693.693,0,0,1,47.86,77.824Z" fill="#fcd200"/><path d="M37.443,25.128a32.793,32.793,0,0,1-4.808-7.276,1.557,1.557,0,1,1,2.779-1.379,42.938,42.938,0,0,1,3.12,8.1A.7.7,0,0,1,37.443,25.128Z" fill="#fcd200"/><path d="M62.257,74.872a32.793,32.793,0,0,1,4.808,7.276,1.557,1.557,0,1,1-2.779,1.379,43.077,43.077,0,0,1-3.12-8.1A.7.7,0,0,1,62.257,74.872Z" fill="#fcd200"/><path d="M26.472,35.459a31.886,31.886,0,0,1-7.842-3.624,1.57,1.57,0,1,1,1.656-2.659A41.875,41.875,0,0,1,27.113,34.4.713.713,0,0,1,26.472,35.459Z" fill="#fcd200"/><path d="M73.228,64.541a31.886,31.886,0,0,1,7.842,3.624,1.57,1.57,0,1,1-1.655,2.659A41.934,41.934,0,0,1,72.587,65.6.713.713,0,0,1,73.228,64.541Z" fill="#fcd200"/><path d="M22.761,49.511a31.61,31.61,0,0,1-8.525,1.238,1.577,1.577,0,1,1-.007-3.149,41.07,41.07,0,0,1,8.514.668A.719.719,0,0,1,22.761,49.511Z" fill="#fcd200"/><path d="M77.239,49.465a31.61,31.61,0,0,1,8.525-1.238,1.577,1.577,0,1,1,.007,3.148,41.011,41.011,0,0,1-8.514-.667A.719.719,0,0,1,77.239,49.465Z" fill="#fcd200"/><path d="M69.417,30.475a32.626,32.626,0,0,1,5.369-6.856c1.586-1.638,3.684.725,2.126,2.285a41.838,41.838,0,0,1-6.645,5.463A.707.707,0,0,1,69.417,30.475Z" fill="#fcd200"/><path d="M30.284,69.525a32.625,32.625,0,0,1-5.37,6.856c-1.586,1.638-3.683-.725-2.126-2.285a41.883,41.883,0,0,1,6.645-5.463A.707.707,0,0,1,30.284,69.525Z" fill="#fcd200"/><path d="M57.851,23.319a33.258,33.258,0,0,1,1.491-8.638,1.555,1.555,0,1,1,2.941.97,42.938,42.938,0,0,1-3.266,8.036A.7.7,0,0,1,57.851,23.319Z" fill="#fcd200"/><path d="M41.849,76.681a33.258,33.258,0,0,1-1.491,8.638,1.555,1.555,0,1,1-2.941-.97,43.006,43.006,0,0,1,3.266-8.036A.7.7,0,0,1,41.849,76.681Z" fill="#fcd200"/><path d="M44.451,22.649a33.171,33.171,0,0,1-2.714-8.322,1.553,1.553,0,1,1,3.04-.569,43.23,43.23,0,0,1,.872,8.651A.694.694,0,0,1,44.451,22.649Z" fill="#fcd200"/><path d="M55.249,77.351a33.152,33.152,0,0,1,2.715,8.322,1.553,1.553,0,1,1-3.04.569,43.317,43.317,0,0,1-.873-8.651A.7.7,0,0,1,55.249,77.351Z" fill="#fcd200"/><path d="M31.357,29.419a32.287,32.287,0,0,1-6.546-5.7,1.563,1.563,0,1,1,2.315-2.086,42.392,42.392,0,0,1,5.134,6.949A.7.7,0,0,1,31.357,29.419Z" fill="#fcd200"/><path d="M68.344,70.581a32.25,32.25,0,0,1,6.545,5.7,1.563,1.563,0,1,1-2.314,2.087,42.45,42.45,0,0,1-5.135-6.95A.7.7,0,0,1,68.344,70.581Z" fill="#fcd200"/><path d="M23.5,42.365a31.6,31.6,0,0,1-8.509-1.353A1.574,1.574,0,1,1,15.89,38a41.307,41.307,0,0,1,7.952,3.171A.717.717,0,0,1,23.5,42.365Z" fill="#fcd200"/><path d="M76.2,57.635a31.638,31.638,0,0,1,8.508,1.352A1.574,1.574,0,1,1,83.811,62a41.253,41.253,0,0,1-7.952-3.171A.717.717,0,0,1,76.2,57.635Z" fill="#fcd200"/><path d="M23.555,56.465a31.84,31.84,0,0,1-7.889,3.517,1.575,1.575,0,1,1-.835-3.031,41.046,41.046,0,0,1,8.379-1.678A.717.717,0,0,1,23.555,56.465Z" fill="#fcd200"/><path d="M76.1,42.015A31.857,31.857,0,0,1,83.986,38.5a1.575,1.575,0,1,1,.835,3.031,41.114,41.114,0,0,1-8.379,1.679A.717.717,0,0,1,76.1,42.015Z" fill="#fcd200"/><path d="M27.528,54.556c2.4,12.291,14.849,20.131,27.814,17.509s21.531-14.712,19.134-27S59.627,24.93,46.663,27.552,25.131,42.264,27.528,54.556Z" fill="#fcd200"/><path d="M42.472,32.138c-4.554,2.878-7.147,6.9-8.223,8-1.023,1.048-1.86-.364-1.41-1.254,1.626-3.213,6.866-7.1,9.251-7.529a.458.458,0,0,1,.382.784Z" fill="#fff"/><path d="M32.405,42.544a9.538,9.538,0,0,1-1.2,4.218.846.846,0,0,1-1.338-.107,3.083,3.083,0,0,1,.419-2.741c.334-.589.976-1.635,1.715-1.651a.41.41,0,0,1,.4.281Z" fill="#fff"/><path d="M71.3,41.308a21.581,21.581,0,0,1-1.937,19.585c-6.387,9.73-20,12.645-31.3,6.168a6.447,6.447,0,0,1,6.215-4.934c2.175.052,4.712,1.211,6.3-.31,1.063-1.021,1.026-2.737,1.655-4.081,1.058-2.26,3.745-3.095,6.138-3.67s5.081-1.347,6.217-3.568a8.947,8.947,0,0,0,.671-3.915,8.59,8.59,0,0,1,.707-3.905c.629-1.174,4.03-1.676,5.266-1.227Z" fill="#f7b000" opacity="0.2" style="mix-blend-mode:multiply"/></g></svg>