<svg xmlns="http://www.w3.org/2000/svg" viewBox="0 0 100 100"><g style="isolation:isolate"><path d="M62.267,42.233s18.24.648,26.525-6.273.546-11.441-4.21-9.166c0,0,3.579-6.107-1.456-8.561s-8.637,3.258-8.637,3.258S76.535,10.139,66.4,8.677,52.637,21.794,52.637,21.794s-11.12-7.137-15.865,2.779C31.855,34.849,48.024,42.574,62.267,42.233Z" fill="#c4ccce"/><path d="M71.924,20.888a21.325,21.325,0,0,0-2.408-6.77c-.33-.855.728-1.032,1.124-.557,1.432,1.714,2.254,5.749,1.849,7.279a.3.3,0,0,1-.565.048Z" fill="#fff"/><path d="M68.617,12.458a5.549,5.549,0,0,1-2.138-1.689.582.582,0,0,1,.433-.778,1.819,1.819,0,0,1,1.489.882c.252.336.688.961.492,1.408a.291.291,0,0,1-.276.177Z" fill="#fff"/><path d="M86.653,33.705s-9.022,5.406-24.191,5.77S39.437,30.888,38.323,29.084c1.031-1.434,3.522-2.028,5.2-1.657A11.263,11.263,0,0,1,47.9,29.863a13.711,13.711,0,0,0,4.278,2.621c4.214,1.3,9.016-1.6,13.386-.794,2.471.457,4.59,2.075,7.122,2.193,2.472.115,4.833-1.211,7.253-1.917S85.641,31.546,86.653,33.705Z" fill="#b6bebf"/><path d="M26.679,72.372a1.291,1.291,0,0,1-1.2-.629c-.832-1.426,1.1-4.976,1.5-5.672l.592-1.045.352,1.148c.125.412,1.2,4.059.107,5.541a1.594,1.594,0,0,1-1.329.657Z" fill="#fff"/><path d="M17.677,67.642a1.292,1.292,0,0,1-1.2-.629c-.83-1.425,1.1-4.974,1.495-5.671l.592-1.045.352,1.149c.125.411,1.2,4.057.108,5.538a1.6,1.6,0,0,1-1.33.658Z" fill="#fff"/><path d="M35.765,70a1.293,1.293,0,0,1-1.2-.629c-.83-1.425,1.1-4.975,1.495-5.671l.592-1.045L37,63.8c.125.412,1.2,4.058.108,5.539A1.6,1.6,0,0,1,35.78,70Z" fill="#fff"/><path d="M55.332,67.751a1.3,1.3,0,0,1-1.2-.629c-.83-1.426,1.1-4.975,1.5-5.671l.593-1.045.351,1.148c.126.411,1.2,4.057.109,5.539a1.6,1.6,0,0,1-1.33.658Z" fill="#fff"/><path d="M40.28,78.4a1.293,1.293,0,0,1-1.2-.629c-.83-1.426,1.1-4.974,1.495-5.671l.592-1.045.352,1.149c.125.411,1.2,4.058.108,5.539a1.6,1.6,0,0,1-1.33.657Z" fill="#fff"/><path d="M36.956,88.661a1.294,1.294,0,0,1-1.2-.629c-.83-1.425,1.1-4.974,1.5-5.671l.592-1.045.352,1.149c.125.411,1.2,4.057.109,5.539a1.6,1.6,0,0,1-1.33.657Z" fill="#fff"/><path d="M53,90.642a1.3,1.3,0,0,1-1.2-.629c-.83-1.426,1.1-4.975,1.495-5.671l.592-1.045.352,1.148c.125.411,1.2,4.057.108,5.539a1.6,1.6,0,0,1-1.33.658Z" fill="#fff"/><path d="M30.383,80.775a1.292,1.292,0,0,1-1.2-.629c-.831-1.425,1.1-4.974,1.495-5.671l.592-1.045.351,1.149c.126.411,1.2,4.057.109,5.539a1.6,1.6,0,0,1-1.33.657Z" fill="#fff"/><path d="M27.39,91.426a1.3,1.3,0,0,1-1.2-.629c-.83-1.426,1.1-4.975,1.5-5.671l.592-1.045.352,1.148c.125.411,1.2,4.058.109,5.539a1.6,1.6,0,0,1-1.33.658Z" fill="#fff"/><path d="M20.526,81.532a1.3,1.3,0,0,1-1.2-.629c-.83-1.426,1.1-4.974,1.5-5.672l.593-1.044.351,1.148c.126.411,1.2,4.058.109,5.54a1.6,1.6,0,0,1-1.33.657Z" fill="#fff"/><path d="M45.891,69.944a1.292,1.292,0,0,1-1.2-.629c-.831-1.425,1.1-4.975,1.495-5.671l.592-1.045.351,1.148c.126.412,1.2,4.059.108,5.54a1.594,1.594,0,0,1-1.329.657Z" fill="#fff"/><path d="M44.405,90.642a1.292,1.292,0,0,1-1.2-.629c-.83-1.426,1.1-4.975,1.494-5.671l.592-1.045.352,1.148c.125.411,1.2,4.058.108,5.54a1.6,1.6,0,0,1-1.329.657Z" fill="#fff"/><path d="M49.68,79.582a1.292,1.292,0,0,1-1.2-.629c-.831-1.426,1.1-4.975,1.495-5.672l.592-1.045.352,1.149c.125.411,1.2,4.059.107,5.54a1.594,1.594,0,0,1-1.329.657Z" fill="#fff"/><path d="M64.484,67.233a1.29,1.29,0,0,1-1.2-.63c-.831-1.425,1.1-4.974,1.494-5.672l.593-1.044.351,1.148c.126.411,1.2,4.058.109,5.541a1.6,1.6,0,0,1-1.33.657Z" fill="#fff"/><path d="M58.858,79.582a1.292,1.292,0,0,1-1.2-.629c-.83-1.426,1.1-4.975,1.494-5.672l.592-1.045.352,1.149c.125.411,1.2,4.059.108,5.54a1.593,1.593,0,0,1-1.329.657Z" fill="#fff"/><path d="M40.088,59.4s22.483.8,32.7-7.732.673-14.1-5.188-11.3c0,0,4.41-7.527-1.8-10.552s-10.646,4.015-10.646,4.015,2.522-13.992-9.974-15.794-16.96,16.168-16.96,16.168-13.707-8.8-19.555,3.425C2.6,50.3,22.533,59.818,40.088,59.4Z" fill="#fdf7e4"/><path d="M51.992,33.088c-.524-4.181-2.54-7.238-2.968-8.345-.407-1.053.9-1.271,1.385-.686,1.765,2.113,2.779,7.086,2.279,8.972a.368.368,0,0,1-.7.059Z" fill="#fff"/><path d="M47.916,22.7a6.826,6.826,0,0,1-2.636-2.083.718.718,0,0,1,.534-.959,2.243,2.243,0,0,1,1.835,1.087c.311.415.848,1.186.607,1.737a.358.358,0,0,1-.34.218Z" fill="#fff"/><path d="M70.147,48.886S59.026,55.55,40.329,56,11.949,45.414,10.576,43.19c1.271-1.767,4.341-2.5,6.4-2.042a13.875,13.875,0,0,1,5.4,3,16.91,16.91,0,0,0,5.273,3.23c5.2,1.6,11.114-1.974,16.5-.978,3.045.563,5.657,2.557,8.778,2.7,3.047.142,5.957-1.493,8.94-2.363S68.9,46.226,70.147,48.886Z" fill="#fdf7e4" style="mix-blend-mode:multiply"/></g></svg>