<svg xmlns="http://www.w3.org/2000/svg" viewBox="0 0 100 100"><path d="M30.537,71.888a1.6,1.6,0,0,1-1.487-.778c-1.028-1.763,1.359-6.151,1.848-7.012l.733-1.292.434,1.42c.155.508,1.478,5.018.133,6.85a1.972,1.972,0,0,1-1.643.812Z" fill="#fff"/><path d="M19.408,66.041a1.6,1.6,0,0,1-1.486-.778c-1.027-1.762,1.359-6.15,1.848-7.012L20.5,56.96l.435,1.419c.155.509,1.479,5.017.134,6.848a1.973,1.973,0,0,1-1.644.814Z" fill="#fff"/><path d="M41.772,68.952a1.6,1.6,0,0,1-1.487-.778c-1.026-1.762,1.36-6.15,1.849-7.011l.732-1.292.435,1.42c.155.508,1.479,5.016.134,6.848a1.975,1.975,0,0,1-1.645.813Z" fill="#fff"/><path d="M65.963,66.175a1.6,1.6,0,0,1-1.487-.778c-1.026-1.762,1.36-6.15,1.849-7.011l.732-1.292.435,1.42c.155.508,1.479,5.016.134,6.848a1.975,1.975,0,0,1-1.645.813Z" fill="#fff"/><path d="M47.354,79.342a1.6,1.6,0,0,1-1.486-.778c-1.027-1.763,1.359-6.15,1.848-7.012l.732-1.291.435,1.419c.155.509,1.478,5.018.133,6.849a1.972,1.972,0,0,1-1.643.813Z" fill="#fff"/><path d="M43.245,92.028a1.6,1.6,0,0,1-1.487-.778c-1.026-1.762,1.36-6.15,1.848-7.011l.733-1.292.434,1.42c.155.508,1.48,5.016.135,6.848a1.975,1.975,0,0,1-1.645.813Z" fill="#fff"/><path d="M63.082,94.477A1.6,1.6,0,0,1,61.6,93.7c-1.026-1.762,1.36-6.151,1.849-7.012l.732-1.292.435,1.42c.155.509,1.479,5.017.134,6.848a1.978,1.978,0,0,1-1.645.814Z" fill="#fff"/><path d="M35.117,82.278a1.6,1.6,0,0,1-1.486-.778c-1.027-1.762,1.359-6.15,1.848-7.011l.732-1.292.435,1.42c.155.508,1.479,5.016.134,6.848a1.974,1.974,0,0,1-1.644.813Z" fill="#fff"/><path d="M31.417,95.446a1.6,1.6,0,0,1-1.486-.778c-1.027-1.762,1.359-6.15,1.848-7.012l.733-1.291.434,1.419c.155.509,1.479,5.017.135,6.849a1.975,1.975,0,0,1-1.645.813Z" fill="#fff"/><path d="M22.93,83.213a1.6,1.6,0,0,1-1.486-.777c-1.027-1.763,1.359-6.15,1.848-7.012l.732-1.292.435,1.42c.155.508,1.479,5.017.134,6.849a1.973,1.973,0,0,1-1.644.812Z" fill="#fff"/><path d="M54.291,68.887a1.6,1.6,0,0,1-1.487-.778c-1.026-1.762,1.36-6.151,1.848-7.012l.733-1.292.435,1.42c.154.509,1.478,5.018.133,6.849a1.976,1.976,0,0,1-1.644.813Z" fill="#fff"/><path d="M52.454,94.477a1.6,1.6,0,0,1-1.487-.778c-1.026-1.763,1.359-6.151,1.848-7.012l.732-1.292.435,1.42c.155.509,1.479,5.018.134,6.849a1.978,1.978,0,0,1-1.644.813Z" fill="#fff"/><path d="M58.975,80.8a1.6,1.6,0,0,1-1.486-.778c-1.027-1.763,1.359-6.151,1.848-7.012l.732-1.292.435,1.42c.155.508,1.478,5.018.133,6.85a1.974,1.974,0,0,1-1.643.812Z" fill="#fff"/><path d="M77.278,65.534a1.6,1.6,0,0,1-1.486-.778c-1.027-1.762,1.359-6.15,1.848-7.012l.732-1.292.435,1.42c.155.508,1.479,5.017.134,6.85a1.976,1.976,0,0,1-1.644.812Z" fill="#fff"/><path d="M70.323,80.8a1.6,1.6,0,0,1-1.486-.778c-1.027-1.763,1.358-6.151,1.847-7.012l.732-1.292.435,1.42c.155.508,1.479,5.018.134,6.85a1.974,1.974,0,0,1-1.643.812Z" fill="#fff"/><path d="M47.117,55.848s27.8.987,40.422-9.56.833-17.435-6.415-13.968c0,0,5.454-9.306-2.22-13.047s-13.162,4.965-13.162,4.965S68.86,6.939,53.41,4.711,32.442,24.7,32.442,24.7,15.5,13.824,8.265,28.935C.772,44.6,25.411,56.367,47.117,55.848Z" fill="#c4ccce"/><path d="M61.833,23.32c-.647-5.17-3.139-8.949-3.668-10.318-.5-1.3,1.108-1.572,1.712-.848,2.182,2.612,3.435,8.76,2.817,11.092a.456.456,0,0,1-.861.074Z" fill="#fff"/><path d="M56.794,10.473A8.445,8.445,0,0,1,53.536,7.9a.887.887,0,0,1,.66-1.185,2.772,2.772,0,0,1,2.269,1.344c.384.512,1.048,1.465.75,2.146a.444.444,0,0,1-.421.27Z" fill="#fff"/><path d="M84.28,42.852S70.53,51.09,47.414,51.644,12.327,38.558,10.629,35.809C12.2,33.624,16,32.72,18.545,33.284A17.144,17.144,0,0,1,25.222,37a20.922,20.922,0,0,0,6.52,3.994c6.423,1.983,13.741-2.442,20.4-1.21,3.765.7,6.994,3.162,10.853,3.342,3.767.176,7.365-1.846,11.053-2.921S82.737,39.562,84.28,42.852Z" fill="#b6bebf"/></svg>