<svg xmlns="http://www.w3.org/2000/svg" viewBox="0 0 100 100"><g style="isolation:isolate"><path d="M62.267,43.082s18.24.648,26.525-6.273.546-11.442-4.21-9.166c0,0,3.579-6.107-1.456-8.561s-8.637,3.257-8.637,3.257S76.535,10.988,66.4,9.526,52.637,22.643,52.637,22.643s-11.12-7.137-15.865,2.779C31.855,35.7,48.024,43.422,62.267,43.082Z" fill="#c4ccce"/><path d="M71.924,21.737a21.323,21.323,0,0,0-2.408-6.771c-.33-.854.728-1.031,1.124-.556,1.432,1.714,2.254,5.748,1.849,7.278a.3.3,0,0,1-.565.049Z" fill="#fff"/><path d="M68.617,13.307a5.542,5.542,0,0,1-2.138-1.69.582.582,0,0,1,.433-.778,1.824,1.824,0,0,1,1.489.882c.252.336.688.962.492,1.409a.292.292,0,0,1-.276.177Z" fill="#fff"/><path d="M86.653,34.554s-9.022,5.406-24.191,5.77S39.437,31.736,38.323,29.932c1.031-1.434,3.522-2.027,5.2-1.657A11.271,11.271,0,0,1,47.9,30.712a13.73,13.73,0,0,0,4.278,2.621c4.214,1.3,9.016-1.6,13.386-.794,2.471.457,4.59,2.075,7.122,2.193,2.472.115,4.833-1.211,7.253-1.917S85.641,32.4,86.653,34.554Z" fill="#b6bebf"/><path d="M29.1,73.59a1.539,1.539,0,0,1-1.408-.752c-.823-1.414.706-4.42,1.4-5.646l.928-1.636.549,1.8c.2.656,1.146,4,.053,5.487a1.808,1.808,0,0,1-1.506.749Z" fill="#fff"/><path d="M18.221,70.769a1.54,1.54,0,0,1-1.409-.752c-.823-1.414.706-4.42,1.4-5.647l.927-1.635.55,1.8c.2.656,1.145,4,.053,5.487a1.814,1.814,0,0,1-1.507.75Z" fill="#fff"/><path d="M37.941,79.384a1.538,1.538,0,0,1-1.408-.752c-.824-1.415.7-4.421,1.4-5.648l.927-1.635.55,1.8c.2.656,1.146,4,.053,5.487a1.812,1.812,0,0,1-1.506.75Z" fill="#fff"/><path d="M32.947,90.577a1.538,1.538,0,0,1-1.408-.752c-.824-1.414.7-4.421,1.4-5.647l.927-1.636.55,1.8c.2.655,1.145,4,.054,5.488a1.815,1.815,0,0,1-1.506.749Z" fill="#fff"/><path d="M45.52,88.958a1.538,1.538,0,0,1-1.408-.752c-.824-1.414.7-4.42,1.4-5.647l.927-1.635.55,1.8c.2.655,1.145,4,.053,5.486a1.812,1.812,0,0,1-1.506.75Z" fill="#fff"/><path d="M22.514,85.6a1.539,1.539,0,0,1-1.408-.752c-.824-1.414.7-4.42,1.4-5.646l.928-1.636.55,1.8c.2.656,1.145,4,.053,5.488a1.813,1.813,0,0,1-1.506.749Z" fill="#fff"/><path d="M59.171,86.362a1.536,1.536,0,0,1-1.408-.752c-.824-1.413.705-4.42,1.4-5.646l.928-1.635.549,1.8c.2.655,1.146,4,.054,5.487a1.808,1.808,0,0,1-1.506.749Z" fill="#fff"/><path d="M47.138,72.12a1.537,1.537,0,0,1-1.408-.752c-.823-1.414.706-4.42,1.4-5.646l.928-1.635.549,1.8c.2.655,1.146,4,.054,5.487a1.813,1.813,0,0,1-1.507.749Z" fill="#fff"/><path d="M64.6,69.575a1.538,1.538,0,0,1-1.408-.752c-.823-1.414.706-4.42,1.4-5.647l.928-1.635.549,1.8c.2.655,1.146,4,.054,5.487a1.815,1.815,0,0,1-1.507.75Z" fill="#fff"/><path d="M54.275,78.574a1.536,1.536,0,0,1-1.408-.752c-.823-1.414.706-4.42,1.4-5.646l.927-1.635.55,1.8c.2.655,1.145,4,.054,5.487a1.814,1.814,0,0,1-1.507.749Z" fill="#fff"/><path d="M42.567,51.8c-.269.851-7.154,20.019-7.154,20.019l7.943-.389L37.009,86.544,55.833,66.375l-10.017-.129,9.252-12.978Z" fill="#fcd200"/><path d="M40.088,60.247s22.483.8,32.7-7.732.673-14.1-5.188-11.3c0,0,4.41-7.527-1.8-10.553S55.153,34.68,55.153,34.68s2.522-13.992-9.974-15.794-16.96,16.168-16.96,16.168-13.707-8.8-19.555,3.425C2.6,51.145,22.533,60.667,40.088,60.247Z" fill="#fdf7e4"/><path d="M51.992,33.937c-.524-4.181-2.54-7.238-2.968-8.345-.407-1.054.9-1.271,1.385-.686,1.765,2.113,2.779,7.086,2.279,8.971a.368.368,0,0,1-.7.06Z" fill="#fff"/><path d="M47.916,23.546a6.823,6.823,0,0,1-2.636-2.082.717.717,0,0,1,.534-.959,2.241,2.241,0,0,1,1.835,1.087c.311.414.848,1.186.607,1.736a.357.357,0,0,1-.34.218Z" fill="#fff"/><path d="M70.147,49.735S59.026,56.4,40.329,56.847,11.949,46.263,10.576,44.039c1.271-1.768,4.341-2.5,6.4-2.042a13.875,13.875,0,0,1,5.4,3,16.91,16.91,0,0,0,5.273,3.23c5.2,1.6,11.114-1.975,16.5-.979,3.045.564,5.657,2.558,8.778,2.7,3.047.142,5.957-1.493,8.94-2.363S68.9,47.074,70.147,49.735Z" fill="#fdf7e4" style="mix-blend-mode:multiply"/></g></svg>