<svg xmlns="http://www.w3.org/2000/svg" viewBox="0 0 100 100"><g style="isolation:isolate"><path d="M50.205,73.26s24.246.861,35.259-8.339.726-15.208-5.6-12.184c0,0,4.757-8.117-1.936-11.38s-11.481,4.33-11.481,4.33S69.171,30.6,55.694,28.655,37.405,46.091,37.405,46.091,22.623,36.6,16.316,49.785C9.781,63.444,31.272,73.712,50.205,73.26Z" fill="#fdf7e4"/><path d="M63.042,44.887c-.565-4.51-2.739-7.806-3.2-9-.44-1.136.967-1.371,1.493-.74,1.9,2.279,3,7.642,2.458,9.675a.4.4,0,0,1-.751.065Z" fill="#fff"/><path d="M58.647,33.681A7.361,7.361,0,0,1,55.8,31.435.774.774,0,0,1,56.38,30.4a2.419,2.419,0,0,1,1.979,1.172c.336.447.914,1.279.654,1.873a.386.386,0,0,1-.366.235Z" fill="#fff"/><path d="M82.621,61.923s-11.993,7.187-32.156,7.67S19.859,58.179,18.378,55.78c1.37-1.906,4.681-2.694,6.905-2.2a14.954,14.954,0,0,1,5.824,3.239A18.24,18.24,0,0,0,36.794,60.3c5.6,1.73,11.986-2.129,17.794-1.055,3.285.607,6.1,2.758,9.467,2.915,3.286.154,6.424-1.61,9.641-2.548S81.275,59.054,82.621,61.923Z" fill="#fdf7e4" style="mix-blend-mode:multiply"/><path d="M36.512,87.288a1.785,1.785,0,0,1-1.629-.874c-.921-1.582.75-4.875,1.511-6.217l1.147-2.022L38.22,80.4c.22.717,1.252,4.377.038,6.029a2.1,2.1,0,0,1-1.726.861Z" fill="#fff"/><path d="M24.782,84.246a1.785,1.785,0,0,1-1.63-.874c-.922-1.583.75-4.876,1.511-6.218l1.146-2.021.68,2.222c.22.717,1.252,4.378.038,6.03a2.1,2.1,0,0,1-1.727.861Z" fill="#fff"/><path d="M46.048,93.536a1.787,1.787,0,0,1-1.63-.874c-.921-1.583.75-4.876,1.511-6.218l1.147-2.021.679,2.222c.22.717,1.252,4.377.038,6.03a2.107,2.107,0,0,1-1.725.861Z" fill="#fff"/><path d="M55.966,85.7a1.784,1.784,0,0,1-1.629-.874c-.921-1.582.749-4.875,1.51-6.218l1.147-2.021.679,2.221c.22.718,1.252,4.379.039,6.031a2.105,2.105,0,0,1-1.727.861Z" fill="#fff"/><path d="M74.792,82.958a1.781,1.781,0,0,1-1.628-.874c-.922-1.582.749-4.875,1.509-6.218l1.147-2.022.68,2.222c.219.718,1.251,4.378.039,6.03a2.109,2.109,0,0,1-1.727.862Z" fill="#fff"/><path d="M63.663,92.663a1.781,1.781,0,0,1-1.629-.874c-.922-1.582.749-4.875,1.509-6.218L64.69,83.55l.68,2.221c.219.718,1.252,4.379.039,6.031a2.108,2.108,0,0,1-1.728.861Z" fill="#fff"/><path d="M54.2,24.388a23.385,23.385,0,0,1,5.069-3.736,1.142,1.142,0,1,1,1.052,2.021,30.09,30.09,0,0,1-5.695,2.508A.519.519,0,0,1,54.2,24.388Z" fill="#fcd200"/><path d="M19.341,43.97a23.373,23.373,0,0,1-5.068,3.735,1.141,1.141,0,1,1-1.052-2.02,30,30,0,0,1,5.7-2.508A.518.518,0,0,1,19.341,43.97Z" fill="#fcd200"/><path d="M47.466,17.086a23.994,23.994,0,0,1,2.694-5.751A1.133,1.133,0,1,1,52.034,12.6a30.742,30.742,0,0,1-3.822,4.978A.509.509,0,0,1,47.466,17.086Z" fill="#fcd200"/><path d="M26.07,51.271a23.957,23.957,0,0,1-2.694,5.751A1.133,1.133,0,1,1,21.5,55.761a30.862,30.862,0,0,1,3.821-4.979A.509.509,0,0,1,26.07,51.271Z" fill="#fcd200"/><path d="M38.214,13.963A24.166,24.166,0,0,1,37.9,7.6a1.128,1.128,0,1,1,2.236.2A31.377,31.377,0,0,1,39.1,14.032.5.5,0,0,1,38.214,13.963Z" fill="#fcd200"/><path d="M35.322,54.4a24.216,24.216,0,0,1,.311,6.364,1.128,1.128,0,1,1-2.237-.2,31.39,31.39,0,0,1,1.042-6.229A.5.5,0,0,1,35.322,54.4Z" fill="#fcd200"/><path d="M27.754,16.107a23.792,23.792,0,0,1-3.493-5.286,1.131,1.131,0,1,1,2.019-1A31.2,31.2,0,0,1,28.546,15.7.507.507,0,0,1,27.754,16.107Z" fill="#fcd200"/><path d="M45.783,52.25a23.828,23.828,0,0,1,3.493,5.286,1.131,1.131,0,1,1-2.019,1,31.209,31.209,0,0,1-2.267-5.882A.508.508,0,0,1,45.783,52.25Z" fill="#fcd200"/><path d="M19.783,23.614a23.172,23.172,0,0,1-5.7-2.633,1.141,1.141,0,1,1,1.2-1.932,30.329,30.329,0,0,1,4.96,3.8A.517.517,0,0,1,19.783,23.614Z" fill="#fcd200"/><path d="M53.754,44.744a23.162,23.162,0,0,1,5.7,2.633,1.14,1.14,0,1,1-1.2,1.931,30.39,30.39,0,0,1-4.961-3.8A.518.518,0,0,1,53.754,44.744Z" fill="#fcd200"/><path d="M17.087,33.824a22.987,22.987,0,0,1-6.194.9,1.146,1.146,0,1,1-.006-2.288,29.785,29.785,0,0,1,6.186.486A.523.523,0,0,1,17.087,33.824Z" fill="#fcd200"/><path d="M56.668,33.79a22.936,22.936,0,0,1,6.194-.9,1.145,1.145,0,1,1,0,2.287,29.8,29.8,0,0,1-6.186-.485A.522.522,0,0,1,56.668,33.79Z" fill="#fcd200"/><path d="M50.984,19.993a23.729,23.729,0,0,1,3.9-4.982c1.152-1.19,2.676.527,1.544,1.661A30.415,30.415,0,0,1,51.6,20.641.514.514,0,0,1,50.984,19.993Z" fill="#fcd200"/><path d="M22.552,48.365a23.686,23.686,0,0,1-3.9,4.981c-1.153,1.191-2.677-.526-1.545-1.66a30.393,30.393,0,0,1,4.828-3.969A.513.513,0,0,1,22.552,48.365Z" fill="#fcd200"/><path d="M42.581,14.793a24.167,24.167,0,0,1,1.084-6.275,1.129,1.129,0,1,1,2.136.7,31.122,31.122,0,0,1-2.373,5.839A.506.506,0,0,1,42.581,14.793Z" fill="#fcd200"/><path d="M30.955,53.564a24.181,24.181,0,0,1-1.083,6.276,1.13,1.13,0,1,1-2.137-.7A31.2,31.2,0,0,1,30.108,53.3.505.505,0,0,1,30.955,53.564Z" fill="#fcd200"/><path d="M32.846,14.307A24.105,24.105,0,0,1,30.873,8.26a1.128,1.128,0,1,1,2.209-.413,31.38,31.38,0,0,1,.634,6.286A.5.5,0,0,1,32.846,14.307Z" fill="#fcd200"/><path d="M40.691,54.051A24.084,24.084,0,0,1,42.663,60.1a1.128,1.128,0,1,1-2.209.413,31.448,31.448,0,0,1-.633-6.286A.5.5,0,0,1,40.691,54.051Z" fill="#fcd200"/><path d="M23.331,19.226a23.459,23.459,0,0,1-4.755-4.141,1.135,1.135,0,1,1,1.682-1.515,30.8,30.8,0,0,1,3.73,5.049A.512.512,0,0,1,23.331,19.226Z" fill="#fcd200"/><path d="M50.205,49.132a23.5,23.5,0,0,1,4.756,4.14,1.136,1.136,0,1,1-1.682,1.516,30.811,30.811,0,0,1-3.731-5.049A.512.512,0,0,1,50.205,49.132Z" fill="#fcd200"/><path d="M17.625,28.632a23,23,0,0,1-6.182-.983,1.144,1.144,0,1,1,.651-2.189,29.96,29.96,0,0,1,5.777,2.3A.521.521,0,0,1,17.625,28.632Z" fill="#fcd200"/><path d="M55.911,39.726a22.957,22.957,0,0,1,6.182.983,1.144,1.144,0,1,1-.65,2.189,30.038,30.038,0,0,1-5.778-2.3A.521.521,0,0,1,55.911,39.726Z" fill="#fcd200"/><path d="M17.663,38.876a23.127,23.127,0,0,1-5.731,2.555,1.144,1.144,0,1,1-.607-2.2,29.811,29.811,0,0,1,6.088-1.219A.521.521,0,0,1,17.663,38.876Z" fill="#fcd200"/><path d="M55.839,28.377a23.127,23.127,0,0,1,5.731-2.555,1.144,1.144,0,1,1,.607,2.2,29.836,29.836,0,0,1-6.088,1.22A.521.521,0,0,1,55.839,28.377Z" fill="#fcd200"/><path d="M20.55,37.489C22.291,46.42,31.339,52.115,40.758,50.21S56.4,39.521,54.661,30.59,43.872,15.964,34.452,17.869,18.808,28.558,20.55,37.489Z" fill="#fcd200"/><path d="M31.407,21.2c-3.308,2.091-5.192,5.011-5.974,5.811-.743.762-1.351-.264-1.024-.91,1.181-2.335,4.988-5.155,6.721-5.47a.332.332,0,0,1,.277.569Z" fill="#fff"/><path d="M24.093,28.761a6.924,6.924,0,0,1-.871,3.065.615.615,0,0,1-.972-.077,2.239,2.239,0,0,1,.3-1.992c.243-.428.71-1.188,1.247-1.2a.3.3,0,0,1,.292.2Z" fill="#fff"/><path d="M52.349,27.863a15.681,15.681,0,0,1-1.407,14.23C46.3,49.162,36.411,51.28,28.2,46.575a4.685,4.685,0,0,1,4.516-3.585c1.58.037,3.423.88,4.573-.225.773-.742.746-1.989,1.2-2.965.768-1.643,2.721-2.249,4.46-2.667s3.691-.979,4.517-2.592a6.515,6.515,0,0,0,.487-2.845,6.241,6.241,0,0,1,.514-2.837c.457-.853,2.928-1.218,3.826-.892Z" fill="#f7b000" opacity="0.2" style="mix-blend-mode:multiply"/><path d="M77.849,35.259a1.531,1.531,0,0,0,1.846,1.048l6.366-1.6a1.5,1.5,0,0,0-.8-2.893l-1.776.446c1.693-2.032,2.929-4.391,2.564-7.147a9.291,9.291,0,0,0-7.775-7.566,10.847,10.847,0,0,0-6.934,1.122c-1.7.913-.189,3.5,1.514,2.59,3.266-1.753,7.788-.846,9.65,2.5,1.453,2.614.075,5.049-1.727,7.056V28.154a1.5,1.5,0,1,0-3,0Z" fill="#fff"/></g></svg>