<svg xmlns="http://www.w3.org/2000/svg" viewBox="0 0 100 100"><g style="isolation:isolate"><path d="M24.275,45.331s-9.76.406-14.216-3.271-.33-6.121,2.222-4.919c0,0-1.935-3.256.752-4.586s4.633,1.715,4.633,1.715-1.132-6.068,4.289-6.884,7.407,6.975,7.407,6.975,5.927-3.856,8.5,1.435C40.526,41.28,31.9,45.467,24.275,45.331Z" fill="#fdf7e4"/><path d="M19.037,33.939A11.415,11.415,0,0,1,20.3,30.308c.174-.459-.393-.55-.6-.294a5.948,5.948,0,0,0-.966,3.9.16.16,0,0,0,.3.024Z" fill="#fff"/><path d="M20.779,29.417a2.963,2.963,0,0,0,1.139-.911.312.312,0,0,0-.235-.415.975.975,0,0,0-.794.477c-.134.18-.364.517-.258.755a.156.156,0,0,0,.148.094Z" fill="#fff"/><path d="M11.2,40.847s4.846,2.863,12.965,3.009,12.294-4.671,12.885-5.64a2.961,2.961,0,0,0-2.786-.87,6.015,6.015,0,0,0-2.337,1.318,7.355,7.355,0,0,1-2.281,1.417c-2.251.71-4.83-.828-7.166-.382-1.321.253-2.45,1.126-3.8,1.2-1.322.07-2.59-.632-3.888-1S11.731,39.688,11.2,40.847Z" fill="#fdf7e4" style="mix-blend-mode:multiply"/><path d="M69.082,38.749a26.9,26.9,0,0,1,5.825-4.293,1.312,1.312,0,1,1,1.208,2.323,34.476,34.476,0,0,1-6.544,2.881A.6.6,0,0,1,69.082,38.749Z" fill="#fcd200"/><path d="M29.031,61.251a26.836,26.836,0,0,1-5.824,4.293A1.312,1.312,0,1,1,22,63.221a34.48,34.48,0,0,1,6.545-2.881A.6.6,0,0,1,29.031,61.251Z" fill="#fcd200"/><path d="M61.35,30.359a27.548,27.548,0,0,1,3.1-6.609A1.3,1.3,0,1,1,66.6,25.2a35.418,35.418,0,0,1-4.391,5.721A.585.585,0,0,1,61.35,30.359Z" fill="#fcd200"/><path d="M36.764,69.641a27.586,27.586,0,0,1-3.1,6.609,1.3,1.3,0,1,1-2.153-1.45,35.476,35.476,0,0,1,4.391-5.721A.586.586,0,0,1,36.764,69.641Z" fill="#fcd200"/><path d="M50.718,26.77a27.859,27.859,0,0,1-.357-7.313,1.3,1.3,0,1,1,2.571.234,36.128,36.128,0,0,1-1.2,7.159A.579.579,0,0,1,50.718,26.77Z" fill="#fcd200"/><path d="M47.4,73.23a27.816,27.816,0,0,1,.357,7.313,1.3,1.3,0,1,1-2.57-.234,36.039,36.039,0,0,1,1.2-7.158A.579.579,0,0,1,47.4,73.23Z" fill="#fcd200"/><path d="M38.7,29.234a27.4,27.4,0,0,1-4.014-6.074A1.3,1.3,0,1,1,37,22.009a35.888,35.888,0,0,1,2.605,6.759A.584.584,0,0,1,38.7,29.234Z" fill="#fcd200"/><path d="M59.415,70.766a27.368,27.368,0,0,1,4.014,6.074,1.3,1.3,0,1,1-2.32,1.151,35.8,35.8,0,0,1-2.6-6.759A.583.583,0,0,1,59.415,70.766Z" fill="#fcd200"/><path d="M29.539,37.859a26.618,26.618,0,0,1-6.548-3.025,1.31,1.31,0,1,1,1.382-2.22,34.958,34.958,0,0,1,5.7,4.362A.594.594,0,0,1,29.539,37.859Z" fill="#fcd200"/><path d="M68.575,62.141a26.591,26.591,0,0,1,6.547,3.025,1.31,1.31,0,1,1-1.382,2.22,34.9,34.9,0,0,1-5.7-4.362A.594.594,0,0,1,68.575,62.141Z" fill="#fcd200"/><path d="M26.44,49.592a26.38,26.38,0,0,1-7.117,1.033A1.316,1.316,0,1,1,19.316,48a34.237,34.237,0,0,1,7.109.557A.6.6,0,0,1,26.44,49.592Z" fill="#fcd200"/><path d="M71.923,49.553a26.386,26.386,0,0,1,7.118-1.033,1.316,1.316,0,1,1,.006,2.628,34.243,34.243,0,0,1-7.109-.557A.6.6,0,0,1,71.923,49.553Z" fill="#fcd200"/><path d="M65.393,33.7a27.215,27.215,0,0,1,4.483-5.725c1.324-1.367,3.075.606,1.775,1.908A34.9,34.9,0,0,1,66.1,34.443.59.59,0,0,1,65.393,33.7Z" fill="#fcd200"/><path d="M32.721,66.3a27.28,27.28,0,0,1-4.483,5.725c-1.325,1.367-3.076-.606-1.775-1.908a34.86,34.86,0,0,1,5.548-4.561A.59.59,0,0,1,32.721,66.3Z" fill="#fcd200"/><path d="M55.737,27.724a27.727,27.727,0,0,1,1.245-7.212,1.3,1.3,0,1,1,2.455.81,35.85,35.85,0,0,1-2.727,6.709A.58.58,0,0,1,55.737,27.724Z" fill="#fcd200"/><path d="M42.377,72.276a27.812,27.812,0,0,1-1.245,7.212,1.3,1.3,0,1,1-2.455-.81A35.857,35.857,0,0,1,41.4,71.969.581.581,0,0,1,42.377,72.276Z" fill="#fcd200"/><path d="M44.549,27.165a27.681,27.681,0,0,1-2.266-6.949,1.3,1.3,0,1,1,2.538-.474,36.059,36.059,0,0,1,.728,7.223A.58.58,0,0,1,44.549,27.165Z" fill="#fcd200"/><path d="M53.564,72.835a27.69,27.69,0,0,1,2.267,6.949,1.3,1.3,0,1,1-2.539.474,36.208,36.208,0,0,1-.728-7.223A.58.58,0,0,1,53.564,72.835Z" fill="#fcd200"/><path d="M33.616,32.817a26.991,26.991,0,0,1-5.464-4.757,1.3,1.3,0,1,1,1.932-1.742,35.343,35.343,0,0,1,4.287,5.8A.588.588,0,0,1,33.616,32.817Z" fill="#fcd200"/><path d="M64.5,67.183a26.973,26.973,0,0,1,5.465,4.757,1.3,1.3,0,1,1-1.933,1.742,35.461,35.461,0,0,1-4.287-5.8A.589.589,0,0,1,64.5,67.183Z" fill="#fcd200"/><path d="M27.059,43.626a26.4,26.4,0,0,1-7.1-1.13,1.314,1.314,0,1,1,.747-2.515,34.4,34.4,0,0,1,6.639,2.648A.6.6,0,0,1,27.059,43.626Z" fill="#fcd200"/><path d="M71.054,56.374a26.372,26.372,0,0,1,7.1,1.13,1.314,1.314,0,1,1-.748,2.515,34.453,34.453,0,0,1-6.639-2.648A.6.6,0,0,1,71.054,56.374Z" fill="#fcd200"/><path d="M27.1,55.4a26.6,26.6,0,0,1-6.586,2.936,1.315,1.315,0,1,1-.7-2.53,34.3,34.3,0,0,1,7-1.4A.6.6,0,0,1,27.1,55.4Z" fill="#fcd200"/><path d="M70.971,43.333A26.57,26.57,0,0,1,77.557,40.4a1.315,1.315,0,1,1,.7,2.531,34.344,34.344,0,0,1-7,1.4A.6.6,0,0,1,70.971,43.333Z" fill="#fcd200"/><ellipse cx="50.018" cy="49.84" rx="20" ry="18.927" transform="translate(-11.116 14.506) rotate(-14.871)" fill="#fcd200"/><path d="M42.9,35.087c-3.8,2.4-5.967,5.758-6.865,6.678-.854.875-1.552-.3-1.177-1.046,1.358-2.683,5.732-5.924,7.724-6.286a.382.382,0,0,1,.318.654Z" fill="#fff"/><path d="M34.492,43.775a7.989,7.989,0,0,1-1,3.522.706.706,0,0,1-1.117-.089,2.574,2.574,0,0,1,.349-2.289c.279-.492.815-1.366,1.433-1.379a.343.343,0,0,1,.336.235Z" fill="#fff"/><path d="M66.961,42.743A18.02,18.02,0,0,1,65.344,59.1c-5.333,8.123-16.7,10.557-26.132,5.149A5.384,5.384,0,0,1,44.4,60.125c1.816.043,3.934,1.011,5.255-.259.888-.853.858-2.285,1.383-3.407.883-1.887,3.126-2.584,5.124-3.064s4.242-1.125,5.191-2.979a7.48,7.48,0,0,0,.56-3.269,7.17,7.17,0,0,1,.59-3.26c.525-.98,3.364-1.4,4.4-1.025Z" fill="#f7b000" opacity="0.2" style="mix-blend-mode:multiply"/><path d="M70.131,80.081s-15.1.629-21.994-5.06-.51-9.47,3.439-7.61c0,0-2.994-5.038,1.163-7.1s7.168,2.654,7.168,2.654-1.752-9.389,6.635-10.651S78,63.109,78,63.109s9.171-5.965,13.15,2.221C95.274,73.814,81.926,80.291,70.131,80.081Z" fill="#fdf7e4"/><path d="M62.027,62.457a17.679,17.679,0,0,1,1.959-5.618c.27-.71-.607-.851-.933-.456a9.209,9.209,0,0,0-1.494,6.036.248.248,0,0,0,.468.038Z" fill="#fff"/><path d="M64.723,55.46a4.584,4.584,0,0,0,1.761-1.41.482.482,0,0,0-.362-.642,1.506,1.506,0,0,0-1.228.738c-.208.28-.565.8-.4,1.169a.241.241,0,0,0,.23.145Z" fill="#fff"/><path d="M49.9,73.143s7.5,4.431,20.059,4.655,19.02-7.226,19.933-8.725a4.581,4.581,0,0,0-4.309-1.346,9.316,9.316,0,0,0-3.616,2.04,11.362,11.362,0,0,1-3.528,2.191c-3.484,1.1-7.474-1.281-11.088-.59-2.044.391-3.79,1.742-5.886,1.852-2.046.108-4.008-.978-6.015-1.55S50.724,71.351,49.9,73.143Z" fill="#fdf7e4" style="mix-blend-mode:multiply"/></g></svg>