<svg xmlns="http://www.w3.org/2000/svg" viewBox="0 0 100 100"><g style="isolation:isolate"><path d="M55.039,24.034A23.416,23.416,0,0,1,60.107,20.3a1.142,1.142,0,1,1,1.052,2.021,30,30,0,0,1-5.695,2.508A.518.518,0,0,1,55.039,24.034Z" fill="#fcd200"/><path d="M20.184,43.616a23.383,23.383,0,0,1-5.068,3.736,1.142,1.142,0,1,1-1.052-2.021,30.062,30.062,0,0,1,5.7-2.508A.518.518,0,0,1,20.184,43.616Z" fill="#fcd200"/><path d="M48.31,16.733A23.959,23.959,0,0,1,51,10.982a1.133,1.133,0,1,1,1.874,1.261,30.742,30.742,0,0,1-3.822,4.978A.508.508,0,0,1,48.31,16.733Z" fill="#fcd200"/><path d="M26.913,50.918a23.927,23.927,0,0,1-2.694,5.75,1.133,1.133,0,1,1-1.873-1.261,30.742,30.742,0,0,1,3.822-4.978A.508.508,0,0,1,26.913,50.918Z" fill="#fcd200"/><path d="M39.057,13.609a24.253,24.253,0,0,1-.31-6.364,1.128,1.128,0,1,1,2.237.2,31.389,31.389,0,0,1-1.042,6.23A.5.5,0,0,1,39.057,13.609Z" fill="#fcd200"/><path d="M36.166,54.041a24.253,24.253,0,0,1,.31,6.364,1.128,1.128,0,1,1-2.237-.2,31.364,31.364,0,0,1,1.042-6.229A.5.5,0,0,1,36.166,54.041Z" fill="#fcd200"/><path d="M28.6,15.754A23.792,23.792,0,0,1,25.1,10.468a1.131,1.131,0,1,1,2.019-1,31.279,31.279,0,0,1,2.267,5.882A.508.508,0,0,1,28.6,15.754Z" fill="#fcd200"/><path d="M46.626,51.9a23.818,23.818,0,0,1,3.493,5.287,1.131,1.131,0,1,1-2.019,1A31.279,31.279,0,0,1,45.833,52.3.508.508,0,0,1,46.626,51.9Z" fill="#fcd200"/><path d="M20.626,23.26a23.189,23.189,0,0,1-5.7-2.633,1.14,1.14,0,1,1,1.2-1.932,30.444,30.444,0,0,1,4.961,3.8A.518.518,0,0,1,20.626,23.26Z" fill="#fcd200"/><path d="M54.6,44.39a23.189,23.189,0,0,1,5.7,2.633,1.141,1.141,0,1,1-1.2,1.932,30.387,30.387,0,0,1-4.961-3.8A.518.518,0,0,1,54.6,44.39Z" fill="#fcd200"/><path d="M17.93,33.47a22.987,22.987,0,0,1-6.194.9,1.145,1.145,0,1,1-.006-2.287,29.805,29.805,0,0,1,6.187.485A.523.523,0,0,1,17.93,33.47Z" fill="#fcd200"/><path d="M57.511,33.436a22.977,22.977,0,0,1,6.194-.9,1.145,1.145,0,1,1,.005,2.287,29.732,29.732,0,0,1-6.186-.485A.522.522,0,0,1,57.511,33.436Z" fill="#fcd200"/><path d="M51.828,19.639a23.723,23.723,0,0,1,3.9-4.982c1.152-1.19,2.676.527,1.545,1.661a30.5,30.5,0,0,1-4.828,3.969A.513.513,0,0,1,51.828,19.639Z" fill="#fcd200"/><path d="M23.4,48.011a23.7,23.7,0,0,1-3.9,4.982c-1.152,1.19-2.676-.527-1.545-1.661a30.5,30.5,0,0,1,4.828-3.969A.513.513,0,0,1,23.4,48.011Z" fill="#fcd200"/><path d="M43.425,14.439a24.138,24.138,0,0,1,1.083-6.275,1.13,1.13,0,1,1,2.137.7,31.229,31.229,0,0,1-2.373,5.839A.505.505,0,0,1,43.425,14.439Z" fill="#fcd200"/><path d="M31.8,53.211a24.13,24.13,0,0,1-1.083,6.275,1.13,1.13,0,1,1-2.137-.7,31.258,31.258,0,0,1,2.373-5.839A.505.505,0,0,1,31.8,53.211Z" fill="#fcd200"/><path d="M33.689,13.953a24.105,24.105,0,0,1-1.973-6.047,1.128,1.128,0,1,1,2.209-.413,31.386,31.386,0,0,1,.634,6.286A.5.5,0,0,1,33.689,13.953Z" fill="#fcd200"/><path d="M41.534,53.7a24.105,24.105,0,0,1,1.973,6.047,1.128,1.128,0,1,1-2.209.413,31.386,31.386,0,0,1-.634-6.286A.5.5,0,0,1,41.534,53.7Z" fill="#fcd200"/><path d="M24.175,18.872a23.472,23.472,0,0,1-4.756-4.14A1.136,1.136,0,1,1,21.1,13.216a30.738,30.738,0,0,1,3.73,5.049A.512.512,0,0,1,24.175,18.872Z" fill="#fcd200"/><path d="M51.048,48.778A23.441,23.441,0,0,1,55.8,52.919a1.135,1.135,0,1,1-1.682,1.515,30.811,30.811,0,0,1-3.731-5.049A.513.513,0,0,1,51.048,48.778Z" fill="#fcd200"/><path d="M18.468,28.278a22.956,22.956,0,0,1-6.181-.983,1.144,1.144,0,1,1,.65-2.189,29.974,29.974,0,0,1,5.778,2.3A.521.521,0,0,1,18.468,28.278Z" fill="#fcd200"/><path d="M56.755,39.372a23.011,23.011,0,0,1,6.182.983,1.144,1.144,0,1,1-.651,2.189,29.974,29.974,0,0,1-5.778-2.3A.522.522,0,0,1,56.755,39.372Z" fill="#fcd200"/><path d="M18.506,38.522a23.135,23.135,0,0,1-5.731,2.556,1.144,1.144,0,1,1-.607-2.2,29.823,29.823,0,0,1,6.088-1.22A.52.52,0,0,1,18.506,38.522Z" fill="#fcd200"/><path d="M56.682,28.024a23.1,23.1,0,0,1,5.731-2.556,1.144,1.144,0,1,1,.607,2.2,29.823,29.823,0,0,1-6.088,1.22A.52.52,0,0,1,56.682,28.024Z" fill="#fcd200"/><path d="M21.393,37.135C23.134,46.066,32.182,51.761,41.6,49.857s15.644-10.69,13.9-19.62S44.715,15.611,35.3,17.515,19.652,28.2,21.393,37.135Z" fill="#fcd200"/><path d="M32.251,20.848c-3.309,2.091-5.193,5.01-5.975,5.811-.743.761-1.351-.264-1.024-.911,1.182-2.335,4.988-5.155,6.721-5.47a.333.333,0,0,1,.278.57Z" fill="#fff"/><path d="M24.936,28.408a6.943,6.943,0,0,1-.87,3.065.616.616,0,0,1-.973-.078,2.241,2.241,0,0,1,.3-1.992c.242-.428.709-1.188,1.246-1.2a.3.3,0,0,1,.292.2Z" fill="#fff"/><path d="M53.192,27.51a15.681,15.681,0,0,1-1.407,14.23c-4.641,7.069-14.53,9.187-22.741,4.481a4.686,4.686,0,0,1,4.516-3.585c1.581.038,3.423.88,4.573-.225.773-.742.746-1.989,1.2-2.965C40.1,37.8,42.057,37.2,43.8,36.779s3.691-.979,4.517-2.592a6.482,6.482,0,0,0,.487-2.844,6.242,6.242,0,0,1,.514-2.838c.457-.853,2.928-1.218,3.826-.891Z" fill="#f7b000" opacity="0.2" style="mix-blend-mode:multiply"/><path d="M49.362,74.321s24.246.861,35.259-8.339.726-15.208-5.6-12.184c0,0,4.757-8.117-1.936-11.38s-11.481,4.331-11.481,4.331,2.72-15.09-10.757-17.033-18.29,17.436-18.29,17.436S21.78,37.665,15.473,50.846C8.937,64.505,30.429,74.773,49.362,74.321Z" fill="#fdf7e4"/><path d="M62.2,45.948c-.565-4.51-2.739-7.806-3.2-9-.439-1.136.967-1.371,1.494-.74,1.9,2.279,3,7.642,2.457,9.675a.4.4,0,0,1-.75.065Z" fill="#fff"/><path d="M57.8,34.742A7.365,7.365,0,0,1,54.961,32.5a.773.773,0,0,1,.576-1.034,2.421,2.421,0,0,1,1.979,1.172c.335.447.914,1.279.654,1.873a.387.387,0,0,1-.367.235Z" fill="#fff"/><path d="M81.777,62.984s-11.992,7.187-32.156,7.67S19.016,59.24,17.535,56.841c1.37-1.906,4.681-2.694,6.905-2.2a14.954,14.954,0,0,1,5.824,3.239,18.24,18.24,0,0,0,5.687,3.483c5.6,1.73,11.985-2.129,17.794-1.055,3.284.607,6.1,2.758,9.467,2.915,3.286.154,6.424-1.61,9.641-2.548S80.432,60.115,81.777,62.984Z" fill="#fdf7e4" style="mix-blend-mode:multiply"/><path d="M77.006,36.32a1.53,1.53,0,0,0,1.845,1.048l6.366-1.6a1.5,1.5,0,1,0-.8-2.893l-1.776.446c1.692-2.032,2.929-4.391,2.564-7.147a9.291,9.291,0,0,0-7.775-7.566A10.847,10.847,0,0,0,70.5,19.731c-1.7.913-.189,3.5,1.514,2.59,3.266-1.753,7.788-.846,9.65,2.5,1.453,2.614.074,5.049-1.728,7.056V29.215a1.5,1.5,0,0,0-3,0Z" fill="#fff"/><path d="M36.512,87.641a1.784,1.784,0,0,1-1.629-.874c-.921-1.582.75-4.875,1.511-6.216l1.147-2.022.679,2.223c.22.717,1.252,4.377.038,6.029a2.1,2.1,0,0,1-1.726.86Z" fill="#fff"/><path d="M24.782,84.6a1.783,1.783,0,0,1-1.63-.874c-.922-1.583.75-4.876,1.511-6.217l1.146-2.022.68,2.223c.22.717,1.252,4.378.038,6.03a2.1,2.1,0,0,1-1.727.86Z" fill="#fff"/><path d="M46.048,93.89a1.787,1.787,0,0,1-1.63-.874c-.921-1.584.75-4.876,1.511-6.218l1.147-2.022L47.755,87c.22.717,1.252,4.377.038,6.03a2.107,2.107,0,0,1-1.725.861Z" fill="#fff"/><path d="M55.966,86.057a1.783,1.783,0,0,1-1.629-.875c-.921-1.582.749-4.875,1.51-6.217l1.147-2.022.679,2.222c.22.718,1.252,4.379.039,6.031a2.105,2.105,0,0,1-1.727.861Z" fill="#fff"/><path d="M74.792,83.311a1.779,1.779,0,0,1-1.628-.874c-.922-1.582.749-4.875,1.509-6.217L75.82,74.2l.68,2.222c.219.718,1.251,4.378.039,6.03a2.105,2.105,0,0,1-1.727.861Z" fill="#fff"/><path d="M63.663,93.016a1.78,1.78,0,0,1-1.629-.874c-.922-1.582.749-4.875,1.509-6.217L64.69,83.9l.68,2.222c.219.718,1.252,4.379.039,6.031a2.1,2.1,0,0,1-1.728.86Z" fill="#fff"/></g></svg>