<svg xmlns="http://www.w3.org/2000/svg" viewBox="0 0 100 100"><g style="isolation:isolate"><path d="M36.512,86.8a1.784,1.784,0,0,1-1.629-.874c-.921-1.582.75-4.875,1.511-6.216l1.147-2.022.679,2.223c.22.717,1.252,4.377.038,6.029a2.1,2.1,0,0,1-1.726.86Z" fill="#fff"/><path d="M24.782,83.759a1.783,1.783,0,0,1-1.63-.874c-.922-1.583.75-4.876,1.511-6.217l1.146-2.022.68,2.223c.22.717,1.252,4.378.038,6.03a2.1,2.1,0,0,1-1.727.86Z" fill="#fff"/><path d="M46.048,93.049a1.785,1.785,0,0,1-1.63-.874c-.921-1.583.75-4.876,1.511-6.217l1.147-2.022.679,2.223c.22.717,1.252,4.377.038,6.03a2.1,2.1,0,0,1-1.725.86Z" fill="#fff"/><path d="M55.966,85.216a1.782,1.782,0,0,1-1.629-.874c-.921-1.582.749-4.875,1.51-6.217L56.994,76.1l.679,2.222c.22.718,1.252,4.379.039,6.031a2.1,2.1,0,0,1-1.727.86Z" fill="#fff"/><path d="M74.792,82.471a1.781,1.781,0,0,1-1.628-.874c-.922-1.582.749-4.875,1.509-6.217l1.147-2.022.68,2.222c.219.717,1.251,4.378.039,6.03a2.108,2.108,0,0,1-1.727.861Z" fill="#fff"/><path d="M63.663,92.176a1.78,1.78,0,0,1-1.629-.874c-.922-1.582.749-4.875,1.509-6.217l1.147-2.022.68,2.222c.219.718,1.252,4.379.039,6.031a2.1,2.1,0,0,1-1.728.86Z" fill="#fff"/><path d="M68.13,65.98c-.217.686-5.774,16.156-5.774,16.156l6.41-.313-5.122,12.2L78.836,77.744l-8.084-.1,7.467-10.474Z" fill="#fcd200"/><path d="M50.205,72.773s24.246.861,35.259-8.338.726-15.209-5.6-12.184c0,0,4.757-8.118-1.936-11.38S66.451,45.2,66.451,45.2s2.72-15.089-10.757-17.032S37.405,45.6,37.405,45.6,22.623,36.117,16.316,49.3C9.781,62.958,31.272,73.226,50.205,72.773Z" fill="#fdf7e4"/><path d="M63.042,44.4c-.565-4.509-2.739-7.806-3.2-9-.44-1.137.967-1.372,1.493-.741,1.9,2.279,3,7.642,2.458,9.676a.4.4,0,0,1-.751.064Z" fill="#fff"/><path d="M58.647,33.194A7.358,7.358,0,0,1,55.8,30.949a.774.774,0,0,1,.576-1.034,2.417,2.417,0,0,1,1.979,1.172c.336.447.914,1.278.654,1.872a.385.385,0,0,1-.366.235Z" fill="#fff"/><path d="M82.621,61.437s-11.993,7.186-32.156,7.67S19.859,57.692,18.378,55.294c1.37-1.906,4.681-2.695,6.905-2.2a14.941,14.941,0,0,1,5.824,3.239,18.258,18.258,0,0,0,5.687,3.483c5.6,1.73,11.986-2.13,17.794-1.056,3.285.608,6.1,2.759,9.467,2.916,3.286.153,6.424-1.61,9.641-2.548S81.275,58.568,82.621,61.437Z" fill="#fdf7e4" style="mix-blend-mode:multiply"/><path d="M54.2,23.9a23.351,23.351,0,0,1,5.069-3.736,1.142,1.142,0,1,1,1.052,2.021,30.076,30.076,0,0,1-5.695,2.507A.518.518,0,0,1,54.2,23.9Z" fill="#fcd200"/><path d="M19.341,43.483a23.349,23.349,0,0,1-5.068,3.736A1.142,1.142,0,1,1,13.221,45.2a29.983,29.983,0,0,1,5.7-2.507A.517.517,0,0,1,19.341,43.483Z" fill="#fcd200"/><path d="M47.466,16.6a23.957,23.957,0,0,1,2.694-5.751,1.133,1.133,0,1,1,1.874,1.261,30.8,30.8,0,0,1-3.822,4.979A.51.51,0,0,1,47.466,16.6Z" fill="#fcd200"/><path d="M26.07,50.785a23.975,23.975,0,0,1-2.694,5.751A1.133,1.133,0,1,1,21.5,55.274,30.847,30.847,0,0,1,25.324,50.3.509.509,0,0,1,26.07,50.785Z" fill="#fcd200"/><path d="M38.214,13.476a24.164,24.164,0,0,1-.31-6.364,1.128,1.128,0,1,1,2.236.205A31.377,31.377,0,0,1,39.1,13.546.5.5,0,0,1,38.214,13.476Z" fill="#fcd200"/><path d="M35.322,53.908a24.216,24.216,0,0,1,.311,6.364,1.128,1.128,0,1,1-2.237-.2,31.377,31.377,0,0,1,1.042-6.229A.5.5,0,0,1,35.322,53.908Z" fill="#fcd200"/><path d="M27.754,15.621a23.792,23.792,0,0,1-3.493-5.286,1.131,1.131,0,1,1,2.019-1,31.2,31.2,0,0,1,2.266,5.882A.507.507,0,0,1,27.754,15.621Z" fill="#fcd200"/><path d="M45.783,51.764a23.828,23.828,0,0,1,3.493,5.286,1.131,1.131,0,1,1-2.019,1,31.188,31.188,0,0,1-2.267-5.883A.508.508,0,0,1,45.783,51.764Z" fill="#fcd200"/><path d="M19.783,23.127a23.135,23.135,0,0,1-5.7-2.633,1.14,1.14,0,1,1,1.2-1.931,30.332,30.332,0,0,1,4.96,3.8A.517.517,0,0,1,19.783,23.127Z" fill="#fcd200"/><path d="M53.754,44.258a23.128,23.128,0,0,1,5.7,2.632,1.14,1.14,0,1,1-1.2,1.932,30.387,30.387,0,0,1-4.961-3.8A.517.517,0,0,1,53.754,44.258Z" fill="#fcd200"/><path d="M17.087,33.337a22.947,22.947,0,0,1-6.194.9,1.145,1.145,0,1,1-.006-2.287,29.8,29.8,0,0,1,6.186.485A.523.523,0,0,1,17.087,33.337Z" fill="#fcd200"/><path d="M56.668,33.3a22.977,22.977,0,0,1,6.194-.9,1.146,1.146,0,1,1,0,2.288,29.715,29.715,0,0,1-6.186-.486A.522.522,0,0,1,56.668,33.3Z" fill="#fcd200"/><path d="M50.984,19.507a23.729,23.729,0,0,1,3.9-4.982c1.152-1.19,2.676.526,1.544,1.66A30.3,30.3,0,0,1,51.6,20.154.513.513,0,0,1,50.984,19.507Z" fill="#fcd200"/><path d="M22.552,47.878a23.7,23.7,0,0,1-3.9,4.982c-1.153,1.19-2.677-.527-1.545-1.66a30.464,30.464,0,0,1,4.828-3.97A.514.514,0,0,1,22.552,47.878Z" fill="#fcd200"/><path d="M42.581,14.307a24.175,24.175,0,0,1,1.084-6.276,1.129,1.129,0,1,1,2.136.705,31.08,31.08,0,0,1-2.373,5.838A.506.506,0,0,1,42.581,14.307Z" fill="#fcd200"/><path d="M30.955,53.078a24.189,24.189,0,0,1-1.083,6.276,1.13,1.13,0,1,1-2.137-.7,31.216,31.216,0,0,1,2.373-5.838A.505.505,0,0,1,30.955,53.078Z" fill="#fcd200"/><path d="M32.846,13.821a24.118,24.118,0,0,1-1.973-6.047,1.128,1.128,0,1,1,2.209-.414,31.386,31.386,0,0,1,.634,6.286A.5.5,0,0,1,32.846,13.821Z" fill="#fcd200"/><path d="M40.691,53.564a24.1,24.1,0,0,1,1.972,6.047,1.128,1.128,0,1,1-2.209.414,31.455,31.455,0,0,1-.633-6.286A.5.5,0,0,1,40.691,53.564Z" fill="#fcd200"/><path d="M23.331,18.739a23.49,23.49,0,0,1-4.755-4.14,1.136,1.136,0,1,1,1.682-1.516,30.882,30.882,0,0,1,3.73,5.049A.512.512,0,0,1,23.331,18.739Z" fill="#fcd200"/><path d="M50.205,48.645a23.5,23.5,0,0,1,4.756,4.141A1.136,1.136,0,1,1,53.279,54.3a30.855,30.855,0,0,1-3.731-5.05A.512.512,0,0,1,50.205,48.645Z" fill="#fcd200"/><path d="M17.625,28.145a22.925,22.925,0,0,1-6.182-.983,1.144,1.144,0,1,1,.651-2.189,30.025,30.025,0,0,1,5.777,2.3A.521.521,0,0,1,17.625,28.145Z" fill="#fcd200"/><path d="M55.911,39.24a22.962,22.962,0,0,1,6.182.982,1.144,1.144,0,1,1-.65,2.189,29.974,29.974,0,0,1-5.778-2.3A.52.52,0,0,1,55.911,39.24Z" fill="#fcd200"/><path d="M17.663,38.39a23.127,23.127,0,0,1-5.731,2.555,1.144,1.144,0,1,1-.607-2.2,29.823,29.823,0,0,1,6.088-1.22A.522.522,0,0,1,17.663,38.39Z" fill="#fcd200"/><path d="M55.839,27.891a23.173,23.173,0,0,1,5.731-2.556,1.145,1.145,0,1,1,.607,2.2,29.823,29.823,0,0,1-6.088,1.219A.52.52,0,0,1,55.839,27.891Z" fill="#fcd200"/><path d="M20.55,37c1.741,8.931,10.789,14.627,20.208,12.722S56.4,39.035,54.661,30.1,43.872,15.478,34.452,17.383,18.808,28.072,20.55,37Z" fill="#fcd200"/><path d="M31.407,20.715c-3.308,2.091-5.192,5.011-5.974,5.811-.743.762-1.351-.264-1.024-.91,1.181-2.336,4.988-5.155,6.721-5.471a.333.333,0,0,1,.277.57Z" fill="#fff"/><path d="M24.093,28.275a6.931,6.931,0,0,1-.871,3.065.614.614,0,0,1-.972-.078,2.238,2.238,0,0,1,.3-1.991c.243-.428.71-1.189,1.247-1.2a.3.3,0,0,1,.292.2Z" fill="#fff"/><path d="M52.349,27.377a15.681,15.681,0,0,1-1.407,14.23C46.3,48.676,36.411,50.794,28.2,46.088A4.684,4.684,0,0,1,32.717,42.5c1.58.037,3.423.879,4.573-.226.773-.742.746-1.988,1.2-2.965.768-1.642,2.721-2.248,4.46-2.666s3.691-.979,4.517-2.593a6.511,6.511,0,0,0,.487-2.844,6.245,6.245,0,0,1,.514-2.838c.457-.852,2.928-1.217,3.826-.891Z" fill="#f7b000" opacity="0.2" style="mix-blend-mode:multiply"/><path d="M77.849,34.773a1.532,1.532,0,0,0,1.846,1.048l6.366-1.6a1.514,1.514,0,0,0,1.047-1.845,1.531,1.531,0,0,0-1.845-1.048l-1.776.447c1.693-2.032,2.929-4.392,2.564-7.147a9.29,9.29,0,0,0-7.775-7.566,10.834,10.834,0,0,0-6.934,1.122c-1.7.913-.189,3.5,1.514,2.59,3.266-1.753,7.788-.847,9.65,2.5,1.453,2.614.075,5.049-1.727,7.055V27.667a1.5,1.5,0,0,0-3,0Z" fill="#fff"/></g></svg>