<svg xmlns="http://www.w3.org/2000/svg" viewBox="0 0 100 100"><g style="isolation:isolate"><path d="M36.512,87.155a1.785,1.785,0,0,1-1.629-.874c-.921-1.582.75-4.875,1.511-6.217l1.147-2.021.679,2.222c.22.717,1.252,4.377.038,6.03a2.1,2.1,0,0,1-1.726.86Z" fill="#fff"/><path d="M24.782,84.113a1.785,1.785,0,0,1-1.63-.874c-.922-1.583.75-4.876,1.511-6.218L25.809,75l.68,2.222c.22.717,1.252,4.378.038,6.031a2.1,2.1,0,0,1-1.727.86Z" fill="#fff"/><path d="M46.048,93.4a1.787,1.787,0,0,1-1.63-.874c-.921-1.583.75-4.876,1.511-6.218l1.147-2.021.679,2.222c.22.717,1.252,4.377.038,6.031a2.106,2.106,0,0,1-1.725.86Z" fill="#fff"/><path d="M55.966,85.57a1.784,1.784,0,0,1-1.629-.874c-.921-1.582.749-4.875,1.51-6.218l1.147-2.021.679,2.222c.22.717,1.252,4.378.039,6.031a2.1,2.1,0,0,1-1.727.86Z" fill="#fff"/><path d="M74.792,82.825a1.781,1.781,0,0,1-1.628-.874c-.922-1.582.749-4.875,1.509-6.218l1.147-2.021.68,2.221c.219.718,1.251,4.378.039,6.031a2.111,2.111,0,0,1-1.727.861Z" fill="#fff"/><path d="M63.663,92.53a1.781,1.781,0,0,1-1.629-.874c-.922-1.582.749-4.875,1.509-6.218l1.147-2.021.68,2.221c.219.718,1.252,4.379.039,6.032a2.107,2.107,0,0,1-1.728.86Z" fill="#fff"/><path d="M68.111,66.333c-.218.687-5.775,16.157-5.775,16.157l6.411-.314-5.123,12.2L78.817,78.1l-8.085-.1L78.2,67.52Z" fill="#fcd200"/><path d="M55.039,23.548a23.349,23.349,0,0,1,5.068-3.736,1.142,1.142,0,1,1,1.052,2.021,30.062,30.062,0,0,1-5.695,2.508A.518.518,0,0,1,55.039,23.548Z" fill="#fcd200"/><path d="M20.184,43.13a23.373,23.373,0,0,1-5.068,3.735,1.141,1.141,0,1,1-1.052-2.02,30,30,0,0,1,5.7-2.508A.518.518,0,0,1,20.184,43.13Z" fill="#fcd200"/><path d="M48.31,16.246A24,24,0,0,1,51,10.5a1.134,1.134,0,1,1,1.874,1.262,30.787,30.787,0,0,1-3.822,4.978A.509.509,0,0,1,48.31,16.246Z" fill="#fcd200"/><path d="M26.913,50.431a23.918,23.918,0,0,1-2.694,5.751,1.133,1.133,0,1,1-1.873-1.261,30.8,30.8,0,0,1,3.822-4.979A.509.509,0,0,1,26.913,50.431Z" fill="#fcd200"/><path d="M39.057,13.123a24.253,24.253,0,0,1-.31-6.364,1.128,1.128,0,1,1,2.237.2,31.377,31.377,0,0,1-1.042,6.229A.5.5,0,0,1,39.057,13.123Z" fill="#fcd200"/><path d="M36.166,53.555a24.253,24.253,0,0,1,.31,6.364,1.128,1.128,0,1,1-2.237-.2,31.39,31.39,0,0,1,1.042-6.229A.5.5,0,0,1,36.166,53.555Z" fill="#fcd200"/><path d="M28.6,15.267A23.792,23.792,0,0,1,25.1,9.981a1.131,1.131,0,1,1,2.019-1,31.279,31.279,0,0,1,2.267,5.882A.508.508,0,0,1,28.6,15.267Z" fill="#fcd200"/><path d="M46.626,51.41A23.792,23.792,0,0,1,50.119,56.7a1.131,1.131,0,1,1-2.019,1,31.279,31.279,0,0,1-2.267-5.882A.508.508,0,0,1,46.626,51.41Z" fill="#fcd200"/><path d="M20.626,22.774a23.189,23.189,0,0,1-5.7-2.633,1.141,1.141,0,1,1,1.2-1.932,30.387,30.387,0,0,1,4.961,3.8A.518.518,0,0,1,20.626,22.774Z" fill="#fcd200"/><path d="M54.6,43.9a23.152,23.152,0,0,1,5.7,2.633,1.14,1.14,0,1,1-1.2,1.931,30.39,30.39,0,0,1-4.961-3.8A.518.518,0,0,1,54.6,43.9Z" fill="#fcd200"/><path d="M17.93,32.984a22.987,22.987,0,0,1-6.194.9A1.146,1.146,0,1,1,11.73,31.6a29.805,29.805,0,0,1,6.187.485A.523.523,0,0,1,17.93,32.984Z" fill="#fcd200"/><path d="M57.511,32.95a22.936,22.936,0,0,1,6.194-.9,1.145,1.145,0,1,1,.005,2.287,29.8,29.8,0,0,1-6.186-.485A.522.522,0,0,1,57.511,32.95Z" fill="#fcd200"/><path d="M51.828,19.153a23.7,23.7,0,0,1,3.9-4.982c1.152-1.19,2.676.527,1.545,1.66a30.464,30.464,0,0,1-4.828,3.97A.513.513,0,0,1,51.828,19.153Z" fill="#fcd200"/><path d="M23.4,47.525a23.713,23.713,0,0,1-3.9,4.981c-1.152,1.191-2.676-.526-1.545-1.66a30.393,30.393,0,0,1,4.828-3.969A.513.513,0,0,1,23.4,47.525Z" fill="#fcd200"/><path d="M43.425,13.953a24.146,24.146,0,0,1,1.083-6.276,1.13,1.13,0,1,1,2.137.705,31.258,31.258,0,0,1-2.373,5.839A.506.506,0,0,1,43.425,13.953Z" fill="#fcd200"/><path d="M31.8,52.724A24.138,24.138,0,0,1,30.715,59a1.13,1.13,0,1,1-2.137-.7,31.216,31.216,0,0,1,2.373-5.838A.505.505,0,0,1,31.8,52.724Z" fill="#fcd200"/><path d="M33.689,13.467A24.105,24.105,0,0,1,31.716,7.42a1.128,1.128,0,1,1,2.209-.413,31.378,31.378,0,0,1,.634,6.285A.5.5,0,0,1,33.689,13.467Z" fill="#fcd200"/><path d="M41.534,53.211a24.092,24.092,0,0,1,1.973,6.047,1.128,1.128,0,1,1-2.209.413,31.386,31.386,0,0,1-.634-6.286A.5.5,0,0,1,41.534,53.211Z" fill="#fcd200"/><path d="M24.175,18.386a23.441,23.441,0,0,1-4.756-4.141A1.135,1.135,0,1,1,21.1,12.73a30.738,30.738,0,0,1,3.73,5.049A.512.512,0,0,1,24.175,18.386Z" fill="#fcd200"/><path d="M51.048,48.292a23.472,23.472,0,0,1,4.756,4.14,1.136,1.136,0,1,1-1.682,1.516A30.854,30.854,0,0,1,50.391,48.9.513.513,0,0,1,51.048,48.292Z" fill="#fcd200"/><path d="M18.468,27.792a23,23,0,0,1-6.181-.983,1.144,1.144,0,1,1,.65-2.189,29.974,29.974,0,0,1,5.778,2.3A.521.521,0,0,1,18.468,27.792Z" fill="#fcd200"/><path d="M56.755,38.886a22.971,22.971,0,0,1,6.182.983,1.144,1.144,0,1,1-.651,2.189,30.038,30.038,0,0,1-5.778-2.3A.522.522,0,0,1,56.755,38.886Z" fill="#fcd200"/><path d="M18.506,38.036a23.127,23.127,0,0,1-5.731,2.555,1.144,1.144,0,1,1-.607-2.2,29.811,29.811,0,0,1,6.088-1.219A.52.52,0,0,1,18.506,38.036Z" fill="#fcd200"/><path d="M56.682,27.537a23.127,23.127,0,0,1,5.731-2.555,1.144,1.144,0,1,1,.607,2.2,29.823,29.823,0,0,1-6.088,1.22A.521.521,0,0,1,56.682,27.537Z" fill="#fcd200"/><path d="M21.393,36.649C23.134,45.579,32.182,51.275,41.6,49.37S57.245,38.681,55.5,29.75,44.715,15.124,35.3,17.029,19.652,27.718,21.393,36.649Z" fill="#fcd200"/><path d="M32.251,20.361c-3.309,2.091-5.193,5.011-5.975,5.811-.743.762-1.351-.264-1.024-.91,1.182-2.335,4.988-5.155,6.721-5.471a.333.333,0,0,1,.278.57Z" fill="#fff"/><path d="M24.936,27.921a6.939,6.939,0,0,1-.87,3.065.616.616,0,0,1-.973-.077,2.24,2.24,0,0,1,.3-1.992c.242-.428.709-1.188,1.246-1.2a.3.3,0,0,1,.292.2Z" fill="#fff"/><path d="M53.192,27.023a15.681,15.681,0,0,1-1.407,14.23c-4.641,7.069-14.53,9.187-22.741,4.482A4.685,4.685,0,0,1,33.56,42.15c1.581.037,3.423.88,4.573-.225.773-.742.746-1.989,1.2-2.966.769-1.642,2.721-2.248,4.46-2.666s3.691-.979,4.517-2.592a6.486,6.486,0,0,0,.487-2.845,6.241,6.241,0,0,1,.514-2.837c.457-.853,2.928-1.218,3.826-.892Z" fill="#f7b000" opacity="0.2" style="mix-blend-mode:multiply"/><path d="M49.362,73.834s24.246.861,35.259-8.338.726-15.209-5.6-12.184c0,0,4.757-8.118-1.936-11.38s-11.481,4.33-11.481,4.33,2.72-15.089-10.757-17.032-18.29,17.435-18.29,17.435S21.78,37.178,15.473,50.359C8.937,64.019,30.429,74.287,49.362,73.834Z" fill="#fdf7e4"/><path d="M62.2,45.461c-.565-4.509-2.739-7.806-3.2-9-.439-1.137.967-1.372,1.494-.741,1.9,2.279,3,7.642,2.457,9.676a.4.4,0,0,1-.75.064Z" fill="#fff"/><path d="M57.8,34.255a7.353,7.353,0,0,1-2.842-2.245.773.773,0,0,1,.576-1.034,2.418,2.418,0,0,1,1.979,1.172c.335.447.914,1.278.654,1.872a.384.384,0,0,1-.367.235Z" fill="#fff"/><path d="M81.777,62.5s-11.992,7.186-32.156,7.67S19.016,58.753,17.535,56.355c1.37-1.906,4.681-2.695,6.905-2.2a14.941,14.941,0,0,1,5.824,3.239,18.258,18.258,0,0,0,5.687,3.483c5.6,1.73,11.985-2.13,17.794-1.055,3.284.607,6.1,2.758,9.467,2.915,3.286.153,6.424-1.61,9.641-2.548S80.432,59.629,81.777,62.5Z" fill="#fdf7e4" style="mix-blend-mode:multiply"/><path d="M77.006,35.834a1.53,1.53,0,0,0,1.845,1.048l6.366-1.6a1.514,1.514,0,0,0,1.048-1.845A1.53,1.53,0,0,0,84.42,32.39l-1.776.446c1.692-2.032,2.929-4.392,2.564-7.147a9.29,9.29,0,0,0-7.775-7.566A10.834,10.834,0,0,0,70.5,19.245c-1.7.913-.189,3.5,1.514,2.59,3.266-1.753,7.788-.847,9.65,2.5,1.453,2.614.074,5.049-1.728,7.055V28.728a1.5,1.5,0,0,0-3,0Z" fill="#fff"/></g></svg>