<svg xmlns="http://www.w3.org/2000/svg" viewBox="0 0 100 100"><g style="isolation:isolate"><path d="M81.367,35.028a22.465,22.465,0,0,1,4.871-3.59,1.1,1.1,0,1,1,1.011,1.942,28.86,28.86,0,0,1-5.473,2.41A.5.5,0,0,1,81.367,35.028Z" fill="#fcd200"/><path d="M47.872,53.847A22.489,22.489,0,0,1,43,57.437,1.1,1.1,0,1,1,41.99,55.5a28.86,28.86,0,0,1,5.473-2.41A.5.5,0,0,1,47.872,53.847Z" fill="#fcd200"/><path d="M74.9,28.011a23.04,23.04,0,0,1,2.589-5.526,1.089,1.089,0,1,1,1.8,1.212,29.529,29.529,0,0,1-3.673,4.784A.49.49,0,0,1,74.9,28.011Z" fill="#fcd200"/><path d="M54.338,60.864a23,23,0,0,1-2.589,5.526,1.089,1.089,0,1,1-1.8-1.212,29.529,29.529,0,0,1,3.673-4.784A.489.489,0,0,1,54.338,60.864Z" fill="#fcd200"/><path d="M66.009,25.01a23.255,23.255,0,0,1-.3-6.116,1.084,1.084,0,1,1,2.15.2,30.177,30.177,0,0,1-1,5.986A.485.485,0,0,1,66.009,25.01Z" fill="#fcd200"/><path d="M63.23,63.865a23.292,23.292,0,0,1,.3,6.116,1.084,1.084,0,1,1-2.149-.2,30.177,30.177,0,0,1,1-5.986A.485.485,0,0,1,63.23,63.865Z" fill="#fcd200"/><path d="M55.957,27.071a22.926,22.926,0,0,1-3.358-5.08,1.087,1.087,0,1,1,1.941-.963,30.022,30.022,0,0,1,2.178,5.653A.488.488,0,0,1,55.957,27.071Z" fill="#fcd200"/><path d="M73.282,61.8a22.926,22.926,0,0,1,3.358,5.08,1.087,1.087,0,1,1-1.941.963,30.022,30.022,0,0,1-2.178-5.653A.488.488,0,0,1,73.282,61.8Z" fill="#fcd200"/><path d="M48.3,34.284a22.232,22.232,0,0,1-5.475-2.53A1.1,1.1,0,1,1,43.976,29.9a29.246,29.246,0,0,1,4.768,3.647A.5.5,0,0,1,48.3,34.284Z" fill="#fcd200"/><path d="M80.943,54.591a22.232,22.232,0,0,1,5.475,2.53,1.1,1.1,0,1,1-1.155,1.856A29.2,29.2,0,0,1,80.5,55.33.5.5,0,0,1,80.943,54.591Z" fill="#fcd200"/><path d="M45.705,44.1a22.034,22.034,0,0,1-5.953.864,1.1,1.1,0,1,1-.005-2.2,28.594,28.594,0,0,1,5.945.466A.5.5,0,0,1,45.705,44.1Z" fill="#fcd200"/><path d="M83.743,44.064A22.034,22.034,0,0,1,89.7,43.2a1.1,1.1,0,1,1,0,2.2,28.663,28.663,0,0,1-5.945-.466A.5.5,0,0,1,83.743,44.064Z" fill="#fcd200"/><path d="M78.281,30.805a22.8,22.8,0,0,1,3.749-4.788c1.108-1.144,2.573.506,1.485,1.6a29.226,29.226,0,0,1-4.64,3.814A.494.494,0,0,1,78.281,30.805Z" fill="#fcd200"/><path d="M50.957,58.07a22.769,22.769,0,0,1-3.749,4.788c-1.107,1.144-2.572-.506-1.484-1.6a29.226,29.226,0,0,1,4.64-3.814A.492.492,0,0,1,50.957,58.07Z" fill="#fcd200"/><path d="M70.206,25.808a23.206,23.206,0,0,1,1.041-6.031,1.085,1.085,0,1,1,2.053.677,29.932,29.932,0,0,1-2.28,5.611A.486.486,0,0,1,70.206,25.808Z" fill="#fcd200"/><path d="M59.033,63.067A23.206,23.206,0,0,1,57.992,69.1a1.086,1.086,0,1,1-2.054-.677,29.993,29.993,0,0,1,2.281-5.611A.486.486,0,0,1,59.033,63.067Z" fill="#fcd200"/><path d="M60.85,25.34a23.17,23.17,0,0,1-1.9-5.811,1.084,1.084,0,1,1,2.123-.4,30.216,30.216,0,0,1,.609,6.041A.485.485,0,0,1,60.85,25.34Z" fill="#fcd200"/><path d="M68.389,63.535a23.17,23.17,0,0,1,1.9,5.811,1.084,1.084,0,1,1-2.123.4,30.223,30.223,0,0,1-.609-6.041A.485.485,0,0,1,68.389,63.535Z" fill="#fcd200"/><path d="M51.706,30.067a22.561,22.561,0,0,1-4.57-3.979,1.091,1.091,0,1,1,1.617-1.456,29.706,29.706,0,0,1,3.585,4.852A.492.492,0,0,1,51.706,30.067Z" fill="#fcd200"/><path d="M77.532,58.808A22.543,22.543,0,0,1,82.1,62.787a1.091,1.091,0,1,1-1.617,1.456A29.706,29.706,0,0,1,76.9,59.391.492.492,0,0,1,77.532,58.808Z" fill="#fcd200"/><path d="M46.223,39.107a22.078,22.078,0,0,1-5.941-.945,1.1,1.1,0,1,1,.625-2.1,28.821,28.821,0,0,1,5.552,2.215A.5.5,0,0,1,46.223,39.107Z" fill="#fcd200"/><path d="M83.016,49.768a22.078,22.078,0,0,1,5.941.945,1.1,1.1,0,1,1-.625,2.1A28.861,28.861,0,0,1,82.779,50.6.5.5,0,0,1,83.016,49.768Z" fill="#fcd200"/><path d="M46.259,48.952a22.222,22.222,0,0,1-5.508,2.455,1.1,1.1,0,1,1-.583-2.116,28.611,28.611,0,0,1,5.85-1.172A.5.5,0,0,1,46.259,48.952Z" fill="#fcd200"/><path d="M82.946,38.862a22.231,22.231,0,0,1,5.508-2.456,1.1,1.1,0,1,1,.583,2.117,28.736,28.736,0,0,1-5.85,1.172A.5.5,0,0,1,82.946,38.862Z" fill="#fcd200"/><path d="M49.033,47.618C50.707,56.2,59.4,61.675,68.454,59.844s15.034-10.272,13.36-18.855S71.446,26.933,62.394,28.764,47.36,39.036,49.033,47.618Z" fill="#fcd200"/><path d="M59.467,31.966a25.179,25.179,0,0,0-5.741,5.584c-.714.732-1.3-.253-.984-.875,1.135-2.244,4.794-4.953,6.459-5.257a.32.32,0,0,1,.266.548Z" fill="#fff"/><path d="M52.439,39.231a6.683,6.683,0,0,1-.837,2.946.591.591,0,0,1-.935-.075,2.153,2.153,0,0,1,.293-1.914c.233-.411.681-1.142,1.2-1.153a.289.289,0,0,1,.282.2Z" fill="#fff"/><path d="M79.593,38.368a15.071,15.071,0,0,1-1.352,13.676c-4.46,6.793-13.964,8.828-21.855,4.306a4.5,4.5,0,0,1,4.34-3.445c1.519.036,3.29.846,4.395-.216.742-.713.717-1.912,1.156-2.85.738-1.578,2.615-2.161,4.286-2.562s3.547-.941,4.341-2.492a6.253,6.253,0,0,0,.468-2.733,6,6,0,0,1,.494-2.727c.439-.82,2.813-1.17,3.677-.857Z" fill="#f7b000" opacity="0.2" style="mix-blend-mode:multiply"/><path d="M46.334,82.166s-22.422.933-32.66-7.514-.757-14.063,5.107-11.3c0,0-4.446-7.481,1.727-10.537s10.643,3.941,10.643,3.941-2.6-13.942,9.854-15.816S58.021,56.963,58.021,56.963s13.619-8.858,19.527,3.3C83.67,72.859,63.849,82.478,46.334,82.166Z" fill="#fdf7e4"/><path d="M34.3,56c.5-4.175,2.489-7.236,2.909-8.343.4-1.053-.9-1.263-1.386-.676-1.748,2.118-2.728,7.085-2.218,8.963a.368.368,0,0,0,.7.056Z" fill="#fff"/><path d="M38.3,45.605a6.809,6.809,0,0,0,2.616-2.094.715.715,0,0,0-.538-.953,2.238,2.238,0,0,0-1.824,1.1c-.308.415-.838,1.187-.595,1.735a.357.357,0,0,0,.341.216Z" fill="#fff"/><path d="M16.287,71.863s11.133,6.58,29.787,6.913,28.244-10.731,29.6-12.957c-1.278-1.756-4.345-2.466-6.4-2a13.831,13.831,0,0,0-5.369,3.029,16.9,16.9,0,0,1-5.24,3.254c-5.173,1.631-11.1-1.9-16.465-.876-3.035.58-5.627,2.586-8.74,2.75-3.039.16-5.951-1.453-8.932-2.3S17.515,69.2,16.287,71.863Z" fill="#fdf7e4" style="mix-blend-mode:multiply"/></g></svg>