<svg xmlns="http://www.w3.org/2000/svg" viewBox="0 0 100 100"><g style="isolation:isolate"><path d="M53.107,79.493s-28.742,1.2-41.865-9.631-.972-18.027,6.545-14.487c0,0-5.7-9.59,2.214-13.507S33.645,46.92,33.645,46.92s-3.334-17.871,12.63-20.273S68.087,47.188,68.087,47.188s17.457-11.356,25.03,4.227C100.965,67.563,75.557,79.893,53.107,79.493Z" fill="#fdf7e4"/><path d="M37.681,45.946c.638-5.351,3.191-9.276,3.729-10.694.513-1.351-1.156-1.619-1.776-.867-2.24,2.716-3.5,9.082-2.843,11.489a.471.471,0,0,0,.89.072Z" fill="#fff"/><path d="M42.812,32.627a8.717,8.717,0,0,0,3.353-2.683.918.918,0,0,0-.69-1.222,2.868,2.868,0,0,0-2.338,1.4c-.4.533-1.074,1.523-.762,2.225a.458.458,0,0,0,.437.276Z" fill="#fff"/><path d="M14.591,66.287s14.271,8.434,38.181,8.861S88.978,61.393,90.716,58.539c-1.638-2.251-5.57-3.161-8.2-2.562s-4.818,2.24-6.882,3.883-4.155,3.363-6.717,4.171c-6.631,2.092-14.226-2.438-21.106-1.123-3.89.745-7.213,3.315-11.2,3.525-3.895.206-7.629-1.862-11.45-2.951S16.165,62.875,14.591,66.287Z" fill="#fdf7e4" style="mix-blend-mode:multiply"/></g></svg>