<svg xmlns="http://www.w3.org/2000/svg" viewBox="0 0 100 100"><g style="isolation:isolate"><path d="M62.626,51.368s18.241.647,26.526-6.274.546-11.441-4.21-9.166c0,0,3.579-6.106-1.457-8.561s-8.637,3.258-8.637,3.258S76.9,19.273,66.756,17.811,53,30.928,53,30.928s-11.12-7.137-15.865,2.779C32.215,43.983,48.383,51.708,62.626,51.368Z" fill="#fdf7e4"/><path d="M72.284,30.023a21.349,21.349,0,0,0-2.408-6.771c-.33-.855.728-1.031,1.124-.557,1.432,1.715,2.254,5.749,1.848,7.279a.3.3,0,0,1-.564.049Z" fill="#fff"/><path d="M68.977,21.592A5.532,5.532,0,0,1,66.839,19.9a.582.582,0,0,1,.433-.778,1.819,1.819,0,0,1,1.489.882c.252.336.687.962.492,1.409a.29.29,0,0,1-.276.176Z" fill="#fff"/><path d="M87.013,42.839s-9.022,5.407-24.191,5.77S39.8,40.022,38.683,38.218c1.031-1.434,3.522-2.027,5.2-1.657A11.242,11.242,0,0,1,48.259,39a13.75,13.75,0,0,0,4.278,2.62c4.215,1.3,9.017-1.6,13.387-.794,2.471.457,4.589,2.075,7.122,2.193,2.472.116,4.833-1.211,7.253-1.917S86,40.681,87.013,42.839Z" fill="#fdf7e4" style="mix-blend-mode:multiply"/><path d="M52.4,82.254s-27.25,1.135-39.693-9.132-.921-17.091,6.206-13.734c0,0-5.4-9.093,2.1-12.806s12.936,4.789,12.936,4.789S30.787,34.427,45.923,32.15,66.6,51.625,66.6,51.625s16.551-10.766,23.732,4.008C97.775,70.943,73.686,82.633,52.4,82.254Z" fill="#c4ccce"/><path d="M37.775,50.447c.6-5.073,3.025-8.794,3.535-10.139.487-1.28-1.1-1.534-1.684-.821C37.5,42.061,36.31,48.1,36.93,50.38a.447.447,0,0,0,.845.067Z" fill="#fff"/><path d="M42.639,37.82a8.262,8.262,0,0,0,3.179-2.544.868.868,0,0,0-.654-1.158,2.716,2.716,0,0,0-2.216,1.331c-.375.505-1.019,1.443-.723,2.109a.434.434,0,0,0,.414.262Z" fill="#fff"/><path d="M15.882,69.733s13.531,8,36.2,8.4S86.41,65.093,88.058,62.387c-1.554-2.134-5.281-3-7.778-2.429a16.832,16.832,0,0,0-6.525,3.682,20.508,20.508,0,0,1-6.368,3.954C61.1,69.578,53.9,65.282,47.376,66.53c-3.688.7-6.839,3.143-10.622,3.342-3.693.195-7.232-1.766-10.855-2.8S17.375,66.5,15.882,69.733Z" fill="#b6bebf"/></g></svg>