<svg xmlns="http://www.w3.org/2000/svg" viewBox="0 0 100 100"><g style="isolation:isolate"><path d="M47.117,56.9s27.8.988,40.422-9.559.833-17.436-6.415-13.969c0,0,5.454-9.306-2.22-13.046s-13.162,4.964-13.162,4.964S68.86,7.988,53.41,5.76,32.442,25.749,32.442,25.749,15.5,14.873,8.265,29.984C.772,45.644,25.411,57.416,47.117,56.9Z" fill="#fdf7e4"/><path d="M61.833,24.369c-.647-5.17-3.139-8.949-3.668-10.318-.5-1.3,1.108-1.571,1.712-.848,2.182,2.612,3.435,8.761,2.817,11.092a.456.456,0,0,1-.861.074Z" fill="#fff"/><path d="M56.794,11.522a8.443,8.443,0,0,1-3.258-2.574.887.887,0,0,1,.66-1.186,2.774,2.774,0,0,1,2.269,1.344c.384.512,1.048,1.466.75,2.147a.443.443,0,0,1-.421.269Z" fill="#fff"/><path d="M84.28,43.9S70.53,52.14,47.414,52.694,12.327,39.608,10.629,36.858C12.2,34.673,16,33.769,18.545,34.333a17.133,17.133,0,0,1,6.677,3.714c2.006,1.576,4.038,3.227,6.52,3.993,6.423,1.984,13.74-2.441,20.4-1.21,3.765.7,6.994,3.163,10.853,3.342,3.767.176,7.365-1.845,11.053-2.921S82.737,40.611,84.28,43.9Z" fill="#fdf7e4" style="mix-blend-mode:multiply"/><path d="M33.53,73.4a1.9,1.9,0,0,1-1.741-.93c-1.017-1.748.873-5.465,1.733-6.982l1.146-2.022.68,2.224c.248.81,1.416,4.946.065,6.784a2.241,2.241,0,0,1-1.862.926Z" fill="#fff"/><path d="M20.08,69.906a1.9,1.9,0,0,1-1.741-.929c-1.018-1.748.873-5.465,1.732-6.982l1.147-2.021L21.9,62.2c.248.811,1.416,4.946.066,6.785a2.243,2.243,0,0,1-1.863.926Z" fill="#fff"/><path d="M44.462,80.558a1.9,1.9,0,0,1-1.741-.93c-1.019-1.749.872-5.466,1.732-6.982L45.6,70.623l.679,2.224c.248.81,1.416,4.946.066,6.784a2.241,2.241,0,0,1-1.862.927Z" fill="#fff"/><path d="M38.287,94.4a1.9,1.9,0,0,1-1.741-.93c-1.019-1.749.872-5.466,1.731-6.983l1.147-2.022.68,2.223c.248.81,1.416,4.947.066,6.785a2.242,2.242,0,0,1-1.862.927Z" fill="#fff"/><path d="M53.832,92.4a1.9,1.9,0,0,1-1.741-.93c-1.019-1.748.872-5.465,1.732-6.982l1.147-2.021.68,2.223c.248.809,1.416,4.945.065,6.783a2.241,2.241,0,0,1-1.862.927Z" fill="#fff"/><path d="M25.389,88.238a1.9,1.9,0,0,1-1.741-.929c-1.019-1.748.872-5.465,1.731-6.982l1.147-2.021.679,2.221c.248.811,1.416,4.947.067,6.785a2.239,2.239,0,0,1-1.863.926Z" fill="#fff"/><path d="M70.71,89.186a1.9,1.9,0,0,1-1.741-.93c-1.019-1.748.872-5.465,1.731-6.981l1.147-2.022.68,2.222c.248.81,1.416,4.946.066,6.784a2.242,2.242,0,0,1-1.862.927Z" fill="#fff"/><path d="M55.833,71.577a1.9,1.9,0,0,1-1.741-.929c-1.018-1.748.873-5.465,1.732-6.982l1.147-2.021.68,2.221c.248.811,1.416,4.946.066,6.784a2.242,2.242,0,0,1-1.863.927Z" fill="#fff"/><path d="M77.416,68.43a1.9,1.9,0,0,1-1.741-.93c-1.018-1.748.873-5.465,1.732-6.981L78.554,58.5l.68,2.222c.248.81,1.416,4.945.066,6.784a2.242,2.242,0,0,1-1.863.927Z" fill="#fff"/><path d="M64.656,79.557a1.9,1.9,0,0,1-1.741-.93c-1.017-1.748.873-5.465,1.733-6.981l1.146-2.022.68,2.222c.248.81,1.416,4.945.066,6.784a2.242,2.242,0,0,1-1.863.927Z" fill="#fff"/></g></svg>