<svg xmlns="http://www.w3.org/2000/svg" viewBox="0 0 246.095 62.623"><g id="f760bc24-fc05-4a6b-b4f9-bece0190cc2d" data-name="圖層 1"><path d="M.885,14.421s-3.991,40.923,4.976,45c7.378,3.356,45.2,3.108,80.121,2.859S224.2,63.775,236.993,61.164s8.362-23.344,8.362-30.458c0-8.08,0-23.5-4.427-26.976S178.458,0,126.809,0,19.715.216,11.272,1.74C.942,3.605.885,14.421.885,14.421Z" fill="#0080a2" opacity="0.23"/><path d="M.885,14.421s-3.991,40.923,4.976,45c7.378,3.356,45.2,3.108,80.121,2.859S224.2,63.775,236.993,61.164s8.362-23.344,8.362-30.458c0-8.08,0-23.5-4.427-26.976S178.458,0,126.809,0,19.715.216,11.272,1.74C.942,3.605.885,14.421.885,14.421Z" fill="#0080a2" opacity="0.8"/></g></svg>