<svg xmlns="http://www.w3.org/2000/svg" viewBox="0 0 164.903 164.319"><g style="isolation:isolate"><g id="f55821c4-0314-4721-9fe1-66e27689f229" data-name="圖層 1"><path d="M76.936,98.11S130.1,100,154.253,79.825s1.592-33.349-12.27-26.717c0,0,10.431-17.8-4.246-24.954s-25.175,9.5-25.175,9.5S118.526,4.561,88.974.3,48.867,38.533,48.867,38.533s-32.413-20.8-46.243,8.1C-11.707,76.586,35.421,99.1,76.936,98.11Z" fill="#fdf7e4"/><path d="M105.085,35.893c-1.239-9.888-6-17.117-7.017-19.734-.963-2.492,2.121-3.007,3.275-1.623,4.174,5,6.571,16.757,5.389,21.216a.872.872,0,0,1-1.647.141Z" fill="#fff"/><path d="M95.447,11.321c-1.186-.118-5.741-3.67-6.232-4.925a1.7,1.7,0,0,1,1.262-2.267c1.813-.163,3.338,1.237,4.34,2.571.736.979,2,2.8,1.434,4.1a.847.847,0,0,1-.8.516Z" fill="#fff"/><path d="M148.018,73.252S121.72,89.01,77.506,90.07,10.393,65.04,7.146,59.781c3.005-4.179,10.265-5.909,15.142-4.829s8.935,4.087,12.771,7.1,7.722,6.172,12.47,7.638c12.285,3.794,26.282-4.67,39.019-2.315,7.2,1.333,13.378,6.049,20.759,6.393,7.206.336,14.087-3.53,21.142-5.587S145.068,66.96,148.018,73.252Z" fill="#fdf7e4" style="mix-blend-mode:multiply"/><path d="M52.6,109.735s-6.984,12.315-1.621,12.276S52.6,109.735,52.6,109.735Z" fill="#fff"/><path d="M32.613,99.235s-6.984,12.316-1.621,12.276S32.613,99.235,32.613,99.235Z" fill="#fff"/><path d="M72.775,104.463s-6.985,12.315-1.621,12.276S72.775,104.463,72.775,104.463Z" fill="#fff"/><path d="M116.218,99.476s-6.985,12.316-1.621,12.276S116.218,99.476,116.218,99.476Z" fill="#fff"/><path d="M82.8,123.122s-6.985,12.315-1.621,12.276S82.8,123.122,82.8,123.122Z" fill="#fff"/><path d="M75.42,145.9S68.435,158.22,73.8,158.181,75.42,145.9,75.42,145.9Z" fill="#fff"/><path d="M111.044,150.3s-6.985,12.315-1.621,12.276S111.044,150.3,111.044,150.3Z" fill="#fff"/><path d="M62.621,128.394S55.636,140.71,61,140.67,62.621,128.394,62.621,128.394Z" fill="#fff"/><path d="M55.977,152.043s-6.985,12.315-1.621,12.276S55.977,152.043,55.977,152.043Z" fill="#fff"/><path d="M38.938,130.074s-6.985,12.316-1.621,12.277S38.938,130.074,38.938,130.074Z" fill="#fff"/><path d="M95.256,104.345s-6.985,12.315-1.621,12.276S95.256,104.345,95.256,104.345Z" fill="#fff"/><path d="M91.957,150.3s-6.985,12.315-1.621,12.276S91.957,150.3,91.957,150.3Z" fill="#fff"/><path d="M103.669,125.745s-6.985,12.315-1.622,12.276S103.669,125.745,103.669,125.745Z" fill="#fff"/><path d="M136.539,98.325s-6.985,12.315-1.621,12.276S136.539,98.325,136.539,98.325Z" fill="#fff"/><path d="M124.047,125.745s-6.985,12.315-1.621,12.276S124.047,125.745,124.047,125.745Z" fill="#fff"/></g></g></svg>