<svg xmlns="http://www.w3.org/2000/svg" viewBox="0 0 30 30"><path d="M28.141,5.657l-8.549-3.42-.012,0a.807.807,0,0,0-.117-.031.827.827,0,0,0-.083-.019.817.817,0,0,0-.131,0c-.024,0-.049,0-.073,0a.835.835,0,0,0-.12.028.8.8,0,0,0-.084.022l-.015,0L10.725,5.53,2.493,2.237a.855.855,0,0,0-1.172.794V23.549a.855.855,0,0,0,.538.794l8.549,3.42c.01,0,.021,0,.03.006a.776.776,0,0,0,.574,0c.01,0,.021,0,.031-.006l8.232-3.293,8.232,3.293a.855.855,0,0,0,1.172-.794V6.451A.855.855,0,0,0,28.141,5.657ZM3.031,4.294,9.87,7.03V25.706L3.031,22.97ZM11.58,7.03l6.84-2.736V22.97l-6.84,2.736ZM26.969,25.706,20.13,22.97V4.294L26.969,7.03Z" fill="#52a8c0"/></svg>