<svg xmlns="http://www.w3.org/2000/svg" viewBox="0 0 50 50"><path d="M1.082,11.763S.3,43.834,2.056,47.03c1.445,2.631,8.849,2.436,15.687,2.241s27.062,1.169,29.566-.877S48.946,30.1,48.946,24.526c0-6.333,0-18.413-.867-21.141S35.849.462,25.736.462,4.769.632,3.116,1.826C1.093,3.288,1.082,11.763,1.082,11.763Z" fill="#52a8c0"/><path d="M30.45,5.45a.623.623,0,0,1-.253.029c-.1-.013-.119-.006-.282.095-.284.176-.431.314-.469.443a1.524,1.524,0,0,1-.219.365l-.188.258-.338.1a3.056,3.056,0,0,1-.881.192l-.248.016L27.3,7.1a5.022,5.022,0,0,1-.575.264c-.167.061-.364.138-.438.167l-.133.054-.2.359c-.111.2-.357.594-.551.878l-.35.522-.018.289c-.018.277-.023.291-.086.354a.725.725,0,0,1-.2.122c-.082.034-.134.068-.129.084a.387.387,0,0,1,0,.243c-.045.106-.137.143-.383.149s-.271.025-.321.224a.293.293,0,0,1-.239.253c-.16.051-.228.14-.386.521-.066.158-.192.42-.28.585a2.423,2.423,0,0,1-.44.609,1.824,1.824,0,0,0-.4.571,1.44,1.44,0,0,1-.219.361.3.3,0,0,0-.113.251.767.767,0,0,1-.21.521c-.072.082-.156.185-.187.231a.45.45,0,0,1-.113.108c-.072.036-.09.063-.09.124a1.952,1.952,0,0,1-.736,1.047c-.082.066-.145.134-.145.156a3.643,3.643,0,0,1-.18.657,3.874,3.874,0,0,1-.463.506,2.421,2.421,0,0,0-.591.722c-.271.469-.269.465-.285.729a1.352,1.352,0,0,1-.083.429c-.14.39-.145.411-.113.524a.317.317,0,0,1-.057.331.613.613,0,0,0-.079.176.217.217,0,0,0,.082.113c.072.061.081.084.1.237a3.082,3.082,0,0,1-.16,1.242,3.952,3.952,0,0,1-.28.833,1.46,1.46,0,0,0-.163.467l-.015.1.07-.016a.179.179,0,0,1,.094,0c.039.025-.036.135-.155.226a.4.4,0,0,0-.124.133,1.5,1.5,0,0,0-.014.235c0,.169,0,.192.056.241a.182.182,0,0,0,.118.057c.108,0,.248.081.526.3.149.12.275.226.282.237a1.7,1.7,0,0,1,.02.264.853.853,0,0,0,.183.583c.077.1.079.108.066.255a.669.669,0,0,0,.158.521,2.286,2.286,0,0,1,.288.619.289.289,0,0,1,0,.2c-.043.14-.038.178.045.388a1.186,1.186,0,0,0,.359.53c.106.086.124.111.12.17s0,.063.011.015.02-.054.106.055c.312.381.309.379.567.517.135.072.379.218.539.327a3.133,3.133,0,0,0,.4.23c.058.02.18.077.27.122a1.354,1.354,0,0,1,.788.93.5.5,0,0,0,.156.293c.12.125.156.2.287.637a4.322,4.322,0,0,1,.189.835c0,.09-.009.106-.124.212-.16.147-.162.19-.009.355a.906.906,0,0,1,.133.171.755.755,0,0,1,0,.215c-.029.259-.032.246.07.246.079,0,.09-.007.09-.054a.292.292,0,0,1,.17-.222c.1-.027.182,0,.395.118.194.11.372.178.4.151a.333.333,0,0,0-.023-.147c-.067-.244-.043-.329.161-.535a1.137,1.137,0,0,0,.279-.44A.265.265,0,0,0,25,32a1.5,1.5,0,0,1-.081-.646c.011-.1.031-.352.043-.55.02-.352.02-.368-.027-.463a.543.543,0,0,1-.05-.28c0-.178,0-.187.2-.609.106-.237.292-.662.411-.944.258-.614.26-.618.352-.7a.915.915,0,0,0,.115-.129c.041-.056.043-.065.009-.129a.282.282,0,0,1,0-.255,4.163,4.163,0,0,1,.422-.268c.722-.422.842-.515.932-.72a1.226,1.226,0,0,1,.1-.172c.068-.086.068-.11,0-.223a.372.372,0,0,1-.056-.127c0-.052.106-.14.25-.207a.972.972,0,0,0,.449-.522c.061-.126.2-.368.3-.535a3.449,3.449,0,0,0,.4-.76.457.457,0,0,1,.285-.269l.056-.023-.013-.246a1.084,1.084,0,0,1,.079-.652c.033-.043.069-.079.083-.079a.022.022,0,0,0,.02-.023,4.275,4.275,0,0,1,.316-.614,2.189,2.189,0,0,0,.19-.444A3.206,3.206,0,0,0,30,20.425a1.466,1.466,0,0,1,.162-.689.433.433,0,0,0,.052-.3.5.5,0,0,1,.075-.35,1.012,1.012,0,0,0,.1-.368,1.992,1.992,0,0,1,.1-.451A12.367,12.367,0,0,0,30.9,16.7c.042-.246.058-.3.1-.334a.328.328,0,0,0-.013-.463c-.075-.083-.077-.1-.037-.289a.443.443,0,0,1,.237-.343l.129-.085-.007-.251a.709.709,0,0,1,.027-.321,1.381,1.381,0,0,1,.249-.237,1.436,1.436,0,0,0,.645-.936.88.88,0,0,1,.1-.459.411.411,0,0,0,.068-.173.38.38,0,0,1,.081-.183.316.316,0,0,0,.07-.136.346.346,0,0,1,.088-.142.359.359,0,0,0,.138-.3c0-.149.066-.255.158-.255s.122-.064.1-.242a3.114,3.114,0,0,0-.149-.673,2.15,2.15,0,0,1-.158-.595.592.592,0,0,0-.07-.251A.458.458,0,0,1,32.6,9.7a1.831,1.831,0,0,1,.612-1.257,2.99,2.99,0,0,1,.339-.3.365.365,0,0,1,.255-.088c.142,0,.151-.016.137-.226,0-.068,0-.124.014-.124s.016-.007.007-.013-.027,0-.043,0a.163.163,0,0,1-.086.016l-.056,0,.056.016c.041.014.047.023.027.036s-.092-.022-.156-.1a1.831,1.831,0,0,1-.119-.208L33.5,7.281v-.6l-.061.016a2.607,2.607,0,0,1-1.106.033,1.255,1.255,0,0,1-.679-.392l-.368-.357c-.133-.131-.158-.167-.169-.251l-.014-.1-.235-.115a1.917,1.917,0,0,0-.252-.115C30.6,5.405,30.531,5.425,30.45,5.45Z" fill="#fff"/><path d="M7.275,44.67q-.42.4-.672-.073a.443.443,0,0,1,.136-.609c.019-.02.048-.045.087-.078q.521-.424.764-.667V41.734a.205.205,0,0,0-.233-.232H6.931a.407.407,0,0,1,0-.813H7.987a.417.417,0,0,1,.444.445v2.022a2.692,2.692,0,0,0,2.322,1.025q2.042.059,4.082-.048c.194-.006.313.024.358.092a.531.531,0,0,1-.01.391.545.545,0,0,1-.145.266.472.472,0,0,1-.28.083q-2.409.076-4,.019a4.678,4.678,0,0,1-1.567-.3,2.746,2.746,0,0,1-1.112-.8Q7.7,44.268,7.275,44.67Zm.47-4.929a4.7,4.7,0,0,0-.368-.3.913.913,0,0,1-.087-.067c-.161-.116-.284-.2-.368-.262-.258-.155-.271-.341-.039-.561a.374.374,0,0,1,.484-.067,5.214,5.214,0,0,1,1.016.706.315.315,0,0,1,.13.256.485.485,0,0,1-.159.266A.381.381,0,0,1,7.745,39.741Zm.28-1.954a3.383,3.383,0,0,0-.32-.29l-.019-.019c-.148-.123-.283-.229-.406-.32-.264-.174-.278-.367-.038-.58a.4.4,0,0,1,.5-.048,6.916,6.916,0,0,1,.947.735.314.314,0,0,1,.117.261.51.51,0,0,1-.175.261A.377.377,0,0,1,8.025,37.787ZM9.4,43.756q-.426-.358.155-.59a6.1,6.1,0,0,0,1.267-.736H9.157a.3.3,0,0,1-.339-.348.3.3,0,0,1,.339-.338h1.277v-.765h-.91a.339.339,0,0,1,0-.677h.91v-.174a.426.426,0,1,1,.851,0V40.3H12.64v-.184a.421.421,0,0,1,.841,0V40.3h.977a.339.339,0,0,1,0,.677h-.977v.765h1.354a.3.3,0,0,1,.338.338.3.3,0,0,1-.338.348H13.084q.871.417,1.567.832c.174.116.25.218.228.3s-.136.173-.339.256a.49.49,0,0,1-.517-.038,9.2,9.2,0,0,0-1.016-.658c-.194-.1-.3-.215-.31-.334s.068-.233.242-.344l.029-.019H10.9l.4.136c.1.032.154.079.17.14a.193.193,0,0,1-.082.189,9.691,9.691,0,0,1-1.461.928A.446.446,0,0,1,9.4,43.756Zm.638-4.208a1.168,1.168,0,0,1-.764-.179.952.952,0,0,1-.193-.7V37.245a.6.6,0,0,1,.628-.628H11.1a.6.6,0,0,1,.628.628V37.7a.6.6,0,0,1-.628.629H9.825v.329a.3.3,0,0,0,.052.213.463.463,0,0,0,.267.048H11.1c.141-.3.338-.394.589-.29.175.064.229.242.165.532a.6.6,0,0,1-.261.3,1,1,0,0,1-.465.088Zm-.212-1.8h.918a.2.2,0,0,0,.232-.232v-.087a.2.2,0,0,0-.232-.232h-.686a.2.2,0,0,0-.232.232Zm1.46,4H12.64v-.765H11.285Zm1.9-2.2a1.215,1.215,0,0,1-.774-.179.923.923,0,0,1-.2-.7V37.245a.6.6,0,0,1,.628-.628h1.442a.6.6,0,0,1,.628.628V37.7a.6.6,0,0,1-.628.629H12.959v.329c0,.116.017.188.053.218a.508.508,0,0,0,.266.043H14.3c.136-.309.332-.413.59-.309.174.064.229.245.165.541a.548.548,0,0,1-.262.309,1.017,1.017,0,0,1-.474.088Zm-.222-1.8h.947a.2.2,0,0,0,.232-.232v-.087a.2.2,0,0,0-.232-.232h-.715a.2.2,0,0,0-.232.232Z" fill="#fff"/><path d="M16.431,44.81q-.144-.493.522-.474a.974.974,0,0,0,.127-.01h.057a.145.145,0,0,0,.165-.164V41.715c-.059.019-.151.048-.28.086-.149.046-.259.081-.33.107a.368.368,0,0,1-.532-.319c-.064-.277.029-.448.281-.513q.039-.009.126-.039l.735-.212V38.987h-.687a.416.416,0,1,1,0-.832H17.3V36.694a.363.363,0,0,1,.416-.406.359.359,0,0,1,.406.406v1.461h.542a.416.416,0,1,1,0,.832h-.542v1.6l.436-.126q.444-.135.5.319a.4.4,0,0,1-.309.484q-.426.135-.629.2v2.7a1.486,1.486,0,0,1-.077.532.585.585,0,0,1-.271.3,1.92,1.92,0,0,1-.716.154C16.711,45.161,16.5,45.048,16.431,44.81ZM22,45.216a.372.372,0,0,1-.426-.416v-.851H19.759a.3.3,0,0,1-.338-.348.3.3,0,0,1,.338-.339h1.818v-.58H19.546a.3.3,0,0,1-.338-.348A.3.3,0,0,1,19.546,42h1.006a4.228,4.228,0,0,0-.164-.474q-.107-.28.174-.338l.028-.01H19.469a.349.349,0,0,1,0-.7h2.108V39.9H19.924a.329.329,0,0,1,0-.658h1.653v-.5h-1.47a.6.6,0,0,1-.629-.629v-.832a.6.6,0,0,1,.629-.629h3.928a.6.6,0,0,1,.628.629v.832a.6.6,0,0,1-.628.629H22.419v.5H24.17a.329.329,0,1,1,0,.658H22.419v.58H24.6a.349.349,0,0,1,0,.7H23.88l.029.01c-.033.057-.081.145-.145.261q-.213.387-.32.551h1.045a.3.3,0,0,1,.339.339.3.3,0,0,1-.339.348h-2.07v.58h1.848a.3.3,0,0,1,.338.339.3.3,0,0,1-.338.348H22.419V44.8A.368.368,0,0,1,22,45.216Zm-1.634-7.1h.58v-.842h-.522a.206.206,0,0,0-.233.233v.435A.154.154,0,0,0,20.369,38.116ZM21.122,42h1.723l-.106-.029c-.039-.006-.052-.029-.039-.068a4.439,4.439,0,0,0,.309-.725H21.045a5.044,5.044,0,0,1,.252.6.16.16,0,0,1-.019.131.188.188,0,0,1-.126.082Zm.523-3.879h.784v-.842h-.784Zm1.48,0H23.7a.2.2,0,0,0,.232-.232v-.426a.163.163,0,0,0-.183-.184h-.62Z" fill="#fff"/><path d="M26.52,44.66a.466.466,0,0,1-.309-.082.342.342,0,0,1-.125-.571,6.312,6.312,0,0,0,.5-1.112.379.379,0,0,1,.5-.29.333.333,0,0,1,.271.493c-.085.238-.181.483-.291.735a5.617,5.617,0,0,1-.319.619A.377.377,0,0,1,26.52,44.66Zm1.868.488a.355.355,0,0,1-.407-.4V42.218H26.733a.6.6,0,0,1-.628-.629V37.748a.368.368,0,0,1,.735,0v3.473a.2.2,0,0,0,.232.232h2.873a.333.333,0,0,1,.377.378.338.338,0,0,1-.377.387H28.784v2.534A.35.35,0,0,1,28.388,45.148Zm-.368-4.227a.6.6,0,0,1-.628-.628v-3.1a.6.6,0,0,1,.628-.629h1.5a.6.6,0,0,1,.629.629v3.1a.6.6,0,0,1-.629.628Zm.067-3.095h1.346v-.387a.205.205,0,0,0-.232-.232H28.32a.206.206,0,0,0-.233.232Zm0,1.228h1.346v-.629H28.087Zm.233,1.239H29.2a.206.206,0,0,0,.232-.233v-.406H28.087v.406A.206.206,0,0,0,28.32,40.293Zm2.254,4.333a.349.349,0,0,1-.145-.561.723.723,0,0,0,.043-.082c.017-.036.027-.063.034-.082l-.377.174a.336.336,0,0,1-.256.029.232.232,0,0,1-.15-.165,5.966,5.966,0,0,0-.4-.88.36.36,0,0,1,.619-.368,6.544,6.544,0,0,1,.513,1.016c.039.116.087.11.145-.019a6.645,6.645,0,0,0,.29-.881.359.359,0,0,1,.47-.319.34.34,0,0,1,.294.465q-.087.319-.271.832a7.424,7.424,0,0,1-.309.7A.33.33,0,0,1,30.574,44.626Zm1.954.522a.354.354,0,0,1-.406-.4V41.879c-.446.038-.861.078-1.248.116q-.339.039-.4-.348a.335.335,0,0,1,.348-.435l.329-.029a9.177,9.177,0,0,0,.639-.794A11.582,11.582,0,0,0,30.68,39.17a.33.33,0,0,1-.019-.5.31.31,0,0,1,.493-.048.313.313,0,0,1,.068.068,11.162,11.162,0,0,0,.667-1.219c-.432.064-.777.107-1.035.126a.344.344,0,0,1-.4-.252q-.135-.367.3-.426a20.079,20.079,0,0,0,2.815-.541.338.338,0,0,1,.251,0,.574.574,0,0,1,.193.174q.319.407-.135.542-.609.155-1.161.242l.107.048c.038.013.044.032.019.058q-.735,1.17-1.132,1.712c.272.271.458.468.562.59q.492-.715.783-1.219a.36.36,0,0,1,.532-.145q.4.193.154.542-.851,1.218-1.682,2.2l1.509-.126c-.033-.064-.094-.164-.184-.3a.909.909,0,0,0-.048-.087q-.213-.309.144-.474a.338.338,0,0,1,.445.116,5.936,5.936,0,0,1,.755,1.364q.087.272-.223.406a.327.327,0,0,1-.512-.222l-.01-.01a.145.145,0,0,0-.029-.077l-.987.1v2.951A.35.35,0,0,1,32.528,45.148Zm1.364-.86a.689.689,0,0,1-.019-.078q-.106-.367-.175-.551-.135-.426-.261-.726c-.1-.219-.033-.373.213-.464a.31.31,0,0,1,.445.184,9.934,9.934,0,0,1,.532,1.47.3.3,0,0,1-.029.251.477.477,0,0,1-.232.136C34.1,44.607,33.944,44.533,33.892,44.288Z" fill="#fff"/><path d="M39.879,45.178a.407.407,0,0,1-.465-.455V40.486H37.683a.2.2,0,0,0-.232.232v2.825a.393.393,0,0,1-.445.445.4.4,0,0,1-.455-.445V40.234a.6.6,0,0,1,.629-.628h2.234V38.425H36.038a.435.435,0,0,1,0-.87H39.4V36.7a.475.475,0,0,1,.949,0v.851h3.424a.435.435,0,1,1,0,.87H40.334v1.181h2.4a.6.6,0,0,1,.63.628v2.7a1.28,1.28,0,0,1-.1.561.629.629,0,0,1-.348.32,3.844,3.844,0,0,1-1.151.154c-.354,0-.571-.116-.648-.348a.326.326,0,0,1,.1-.416.819.819,0,0,1,.5-.106,3.309,3.309,0,0,0,.523,0,.279.279,0,0,0,.16-.049.173.173,0,0,0,.043-.135v-2.2a.2.2,0,0,0-.232-.232H40.334v4.237A.4.4,0,0,1,39.879,45.178Z" fill="#fff"/></svg>