<svg xmlns="http://www.w3.org/2000/svg" viewBox="0 0 144.766 170.809"><path d="M22.316,78.754a27.882,27.882,0,0,1,14.425-4.532c9.454,0,14.146,3.24,18.035,6.875,3.71-3.324,8.586-6.875,17.911-6.875,9.293,0,14.781,3.7,18.034,6.707,3.719-3.549,8.809-6.707,17.912-6.707a26.174,26.174,0,0,1,13.817,4.33C118.811,56.819,97.753,40.1,72.4,40.1,46.968,40.1,25.858,56.923,22.316,78.754Z" fill="#0080a2"/><path d="M69.374,80.465v46.424a21.643,21.643,0,0,0,4.4,13.372,13.984,13.984,0,0,0,22.847,0,21.643,21.643,0,0,0,4.394-13.372,3.025,3.025,0,0,0-6.05,0c0,7.3-4.382,13.24-9.768,13.24s-9.767-5.94-9.767-13.24V80.41a26.835,26.835,0,0,0-2.738-.137A27.142,27.142,0,0,0,69.374,80.465Z" fill="#0080a2"/><path d="M75.425,34.12V27.654a3.026,3.026,0,0,0-6.051,0V34.12q1.506-.07,3.025-.073T75.425,34.12Z" fill="#0080a2"/></svg>