<svg xmlns="http://www.w3.org/2000/svg" viewBox="0 0 50 50"><g style="isolation:isolate"><path d="M38.593,17.315a18.336,18.336,0,0,1,3.979-2.932.9.9,0,1,1,.825,1.586,23.5,23.5,0,0,1-4.47,1.968A.407.407,0,0,1,38.593,17.315Z" fill="#fcd200"/><path d="M11.236,32.685a18.312,18.312,0,0,1-3.979,2.932.9.9,0,1,1-.825-1.586,23.5,23.5,0,0,1,4.47-1.968A.407.407,0,0,1,11.236,32.685Z" fill="#fcd200"/><path d="M33.312,11.584A18.793,18.793,0,0,1,35.426,7.07a.89.89,0,1,1,1.471.99,24.186,24.186,0,0,1-3,3.907A.4.4,0,0,1,33.312,11.584Z" fill="#fcd200"/><path d="M16.517,38.416A18.793,18.793,0,0,1,14.4,42.93a.889.889,0,1,1-1.47-.99,24.132,24.132,0,0,1,3-3.907A.4.4,0,0,1,16.517,38.416Z" fill="#fcd200"/><path d="M26.049,9.132a18.978,18.978,0,0,1-.243-4.995.885.885,0,1,1,1.755.16,24.632,24.632,0,0,1-.817,4.89A.4.4,0,0,1,26.049,9.132Z" fill="#fcd200"/><path d="M23.78,40.868a18.978,18.978,0,0,1,.243,4.995.885.885,0,1,1-1.755-.16,24.622,24.622,0,0,1,.818-4.89A.4.4,0,0,1,23.78,40.868Z" fill="#fcd200"/><path d="M17.839,10.815A18.7,18.7,0,0,1,15.1,6.666a.888.888,0,1,1,1.585-.786A24.512,24.512,0,0,1,18.461,10.5.4.4,0,0,1,17.839,10.815Z" fill="#fcd200"/><path d="M31.99,39.185a18.668,18.668,0,0,1,2.742,4.149.888.888,0,1,1-1.585.786A24.581,24.581,0,0,1,31.368,39.5.4.4,0,0,1,31.99,39.185Z" fill="#fcd200"/><path d="M11.582,16.707A18.175,18.175,0,0,1,7.11,14.641a.9.9,0,1,1,.944-1.517,23.863,23.863,0,0,1,3.894,2.98A.406.406,0,0,1,11.582,16.707Z" fill="#fcd200"/><path d="M38.247,33.293a18.175,18.175,0,0,1,4.472,2.066.9.9,0,1,1-.944,1.517,23.908,23.908,0,0,1-3.894-2.98A.406.406,0,0,1,38.247,33.293Z" fill="#fcd200"/><path d="M9.466,24.721a18.019,18.019,0,0,1-4.862.706.9.9,0,1,1,0-1.795,23.414,23.414,0,0,1,4.856.38A.41.41,0,0,1,9.466,24.721Z" fill="#fcd200"/><path d="M40.534,24.7a17.979,17.979,0,0,1,4.862-.706.9.9,0,1,1,0,1.795,23.414,23.414,0,0,1-4.856-.38A.41.41,0,0,1,40.534,24.7Z" fill="#fcd200"/><path d="M36.073,13.865a18.638,18.638,0,0,1,3.062-3.91c.905-.934,2.1.413,1.213,1.3a23.884,23.884,0,0,1-3.79,3.116A.4.4,0,0,1,36.073,13.865Z" fill="#fcd200"/><path d="M13.756,36.135a18.605,18.605,0,0,1-3.062,3.91c-.905.934-2.1-.413-1.213-1.3a23.884,23.884,0,0,1,3.79-3.116A.4.4,0,0,1,13.756,36.135Z" fill="#fcd200"/><path d="M29.477,9.784a18.962,18.962,0,0,1,.851-4.926.887.887,0,1,1,1.677.553,24.427,24.427,0,0,1-1.863,4.583A.4.4,0,0,1,29.477,9.784Z" fill="#fcd200"/><path d="M20.352,40.216a18.962,18.962,0,0,1-.851,4.926.887.887,0,1,1-1.677-.553,24.5,24.5,0,0,1,1.863-4.583A.4.4,0,0,1,20.352,40.216Z" fill="#fcd200"/><path d="M21.836,9.4a18.914,18.914,0,0,1-1.549-4.746.886.886,0,1,1,1.734-.325,24.7,24.7,0,0,1,.5,4.934A.4.4,0,0,1,21.836,9.4Z" fill="#fcd200"/><path d="M27.993,40.6a18.914,18.914,0,0,1,1.549,4.746.886.886,0,1,1-1.734.325,24.7,24.7,0,0,1-.5-4.934A.4.4,0,0,1,27.993,40.6Z" fill="#fcd200"/><path d="M14.368,13.263a18.436,18.436,0,0,1-3.733-3.25.891.891,0,1,1,1.32-1.19,24.209,24.209,0,0,1,2.928,3.964A.4.4,0,0,1,14.368,13.263Z" fill="#fcd200"/><path d="M35.461,36.737a18.436,18.436,0,0,1,3.733,3.25.891.891,0,1,1-1.32,1.19,24.209,24.209,0,0,1-2.928-3.964A.4.4,0,0,1,35.461,36.737Z" fill="#fcd200"/><path d="M9.889,20.646a18.016,18.016,0,0,1-4.853-.772.9.9,0,1,1,.511-1.718,23.571,23.571,0,0,1,4.535,1.809A.409.409,0,0,1,9.889,20.646Z" fill="#fcd200"/><path d="M39.94,29.354a18.061,18.061,0,0,1,4.853.771.9.9,0,1,1-.511,1.719,23.506,23.506,0,0,1-4.535-1.809A.409.409,0,0,1,39.94,29.354Z" fill="#fcd200"/><path d="M9.918,28.687a18.128,18.128,0,0,1-4.5,2.006.9.9,0,1,1-.477-1.729,23.464,23.464,0,0,1,4.779-.957A.408.408,0,0,1,9.918,28.687Z" fill="#fcd200"/><path d="M39.883,20.446a18.186,18.186,0,0,1,4.5-2.006.9.9,0,1,1,.476,1.729,23.443,23.443,0,0,1-4.778.957A.409.409,0,0,1,39.883,20.446Z" fill="#fcd200"/><path d="M12.184,27.6c1.367,7.01,8.469,11.481,15.862,9.985s12.28-8.39,10.913-15.4S30.49,10.7,23.1,12.2,10.817,20.588,12.184,27.6Z" fill="#fcd200"/><path d="M20.707,14.814a20.583,20.583,0,0,0-4.69,4.561c-.583.6-1.06-.207-.8-.715a10.5,10.5,0,0,1,5.276-4.294.262.262,0,0,1,.218.448Z" fill="#fff"/><path d="M14.966,20.748a5.456,5.456,0,0,1-.684,2.406.483.483,0,0,1-.763-.061,1.758,1.758,0,0,1,.239-1.564c.19-.336.556-.932.978-.941a.234.234,0,0,1,.23.16Z" fill="#fff"/><path d="M37.144,20.043a12.306,12.306,0,0,1-1.1,11.169c-3.643,5.549-11.4,7.211-17.85,3.518a3.677,3.677,0,0,1,3.545-2.814c1.24.029,2.687.691,3.589-.177.607-.582.586-1.561.944-2.327.6-1.289,2.136-1.765,3.5-2.093s2.9-.769,3.545-2.035a5.094,5.094,0,0,0,.383-2.232,4.905,4.905,0,0,1,.4-2.228c.359-.669,2.3-.956,3-.7Z" fill="#f7b000" opacity="0.2" style="mix-blend-mode:multiply"/></g></svg>